<?xml version="1.0" encoding="utf-8"?>
<!-- Generator: Adobe Illustrator 16.0.0, SVG Export Plug-In . SVG Version: 6.00 Build 0)  -->
<!DOCTYPE svg PUBLIC "-//W3C//DTD SVG 1.1//EN" "http://www.w3.org/Graphics/SVG/1.1/DTD/svg11.dtd">
<svg version="1.1" id="Layer_1" xmlns="http://www.w3.org/2000/svg" xmlns:xlink="http://www.w3.org/1999/xlink" x="0px" y="0px"
	 width="331.71px" height="405.203px" viewBox="-21.168 -25.296 331.71 405.203"
	 enable-background="new -21.168 -25.296 331.71 405.203" xml:space="preserve">
<g>
	<path fill="none" d="M287.399,244.469c-0.37-0.744-0.598-1.295-0.9-1.8c-1.614-2.688-3.273-5.353-4.869-8.053
		c-4.723-7.998-9.403-16.022-14.15-24.007c-0.716-1.2-0.894-2.291-0.446-3.629c0.955-2.856,1.96-5.715,2.627-8.646
		c1.03-4.537,1.917-9.116,2.637-13.713c0.649-4.156,1.127-8.35,1.432-12.544c0.265-3.684,0.248-7.391-0.104-11.086
		c-0.364-3.833-0.656-7.672-0.978-11.509c-0.373-4.45-1.166-8.828-2.226-13.165c-2.308-9.449-5.598-18.535-9.991-27.218
		c-2.694-5.321-5.771-10.411-9.171-15.306c-3.886-5.591-8.146-10.883-12.996-15.664c-2.632-2.593-5.415-5.036-8.188-7.48
		c-3.528-3.111-7.16-6.098-11.05-8.758c-6.095-4.165-12.549-7.689-19.246-10.771c-6.958-3.203-14.167-5.677-21.671-7.262
		c-3.38-0.714-6.751-1.463-10.135-2.153c-0.986-0.201-1.717-0.596-2.049-1.607c-0.136-0.414-0.394-0.791-0.619-1.169
		c-5.378-8.969-10.757-17.935-16.137-26.901c-0.386-0.642-0.78-1.277-1.241-2.027c-0.247,0.387-0.423,0.642-0.579,0.907
		c-5.668,9.589-11.355,19.167-16.976,28.784c-0.702,1.205-1.601,1.776-2.905,2.045c-3.814,0.785-7.629,1.584-11.418,2.485
		c-13.207,3.142-25.339,8.769-36.714,16.09c-5.485,3.53-10.635,7.512-15.501,11.867c-3.931,3.517-7.68,7.204-11.093,11.23
		c-3.335,3.932-6.302,8.138-9.197,12.396c-2.939,4.325-5.813,8.693-8.169,13.378c-2.805,5.579-5.1,11.364-7.066,17.285
		c-1.903,5.729-3.49,11.537-4.39,17.513c-0.435,2.894-0.789,5.8-1.109,8.709c-0.294,2.67-0.582,5.347-0.711,8.028
		c-0.137,2.813-0.093,5.633-0.101,8.451c-0.003,1.286-0.012,2.58,0.106,3.859c0.262,2.834,0.642,5.657,0.902,8.491
		c0.438,4.731,1.274,9.379,2.611,13.942c1.277,4.357,2.476,8.736,3.737,13.096c0.261,0.903,0.25,1.703-0.247,2.538
		c-3.458,5.806-6.897,11.618-10.331,17.438c-2.658,4.501-5.302,9.011-7.944,13.521c-0.275,0.472-0.502,0.972-0.83,1.61h1.519h34.913
		c0.321,0,0.644-0.002,0.967,0.002c0.891,0.01,1.623,0.302,2.185,1.049c0.7,0.932,1.477,1.807,2.204,2.715
		c3.052,3.814,6.673,7.077,10.155,10.475c1.581,1.545,3.185,3.074,4.869,4.503c6.927,5.877,14.464,10.86,22.475,15.127
		c7.12,3.79,14.583,6.761,22.298,9.095c5.08,1.536,10.216,2.85,15.491,3.523c2.784,0.355,5.573,0.676,8.364,0.973
		c4.705,0.5,9.397,1.141,14.157,0.721c2.757-0.242,5.523-0.377,8.291-0.484c3.698-0.146,7.35-0.666,10.994-1.262
		c6.112-0.996,12.143-2.35,18.032-4.287c7.156-2.355,14.067-5.287,20.705-8.858c6.463-3.478,12.606-7.45,18.322-12.048
		c2.723-2.188,5.337-4.521,7.876-6.92c2.834-2.678,5.562-5.475,8.268-8.283c1.251-1.301,2.337-2.758,3.491-4.148
		c0.726-0.873,1.528-1.408,2.78-1.354c3.132,0.139,6.27,0.152,9.405,0.185c4.186,0.046,8.371,0.071,12.559,0.082
		c5.155,0.015,10.31,0.003,15.463,0.003h1.613V244.469z"/>
	<path fill="none" d="M287.399,244.469h-1.613c-5.153,0-10.309,0.012-15.463-0.003c-4.188-0.011-8.374-0.038-12.559-0.082
		c-3.138-0.03-6.274-0.046-9.405-0.185c-1.252-0.055-2.057,0.479-2.779,1.354c-1.155,1.393-2.242,2.848-3.493,4.148
		c-2.704,2.81-5.433,5.605-8.267,8.283c-2.539,2.398-5.153,4.73-7.876,6.92c-5.717,4.598-11.859,8.57-18.321,12.048
		c-6.639,3.571-13.55,6.503-20.706,8.858c-5.892,1.938-11.919,3.291-18.032,4.289c-3.646,0.594-7.296,1.113-10.994,1.26
		c-2.767,0.107-5.534,0.242-8.291,0.484c-4.76,0.422-9.453-0.221-14.157-0.721c-2.791-0.297-5.581-0.616-8.364-0.973
		c-5.274-0.676-10.411-1.987-15.491-3.523c-7.716-2.334-15.178-5.305-22.298-9.096c-8.011-4.264-15.549-9.249-22.475-15.126
		c-1.685-1.429-3.288-2.958-4.87-4.503c-3.481-3.396-7.104-6.659-10.154-10.475c-0.728-0.908-1.505-1.783-2.204-2.715
		c-0.562-0.747-1.295-1.039-2.185-1.049c-0.323-0.004-0.646-0.002-0.967-0.002H11.52h-1.52c0.329-0.641,0.556-1.141,0.831-1.61
		c2.643-4.51,5.286-9.02,7.943-13.521c3.435-5.819,6.874-11.633,10.332-17.438c0.497-0.835,0.508-1.635,0.247-2.536
		c-1.263-4.361-2.46-8.74-3.737-13.098c-1.338-4.562-2.175-9.211-2.611-13.942c-0.262-2.834-0.641-5.657-0.902-8.491
		c-0.119-1.279-0.11-2.573-0.106-3.859c0.007-2.818-0.036-5.639,0.1-8.451c0.129-2.681,0.418-5.358,0.712-8.028
		c0.32-2.909,0.674-5.815,1.109-8.709c0.899-5.976,2.486-11.784,4.39-17.513c1.967-5.921,4.262-11.706,7.065-17.285
		c2.355-4.685,5.229-9.053,8.17-13.378c2.895-4.258,5.861-8.464,9.196-12.396c3.413-4.026,7.163-7.714,11.094-11.231
		c4.866-4.354,10.016-8.336,15.501-11.866c11.375-7.321,23.507-12.948,36.714-16.09c3.789-0.901,7.604-1.7,11.418-2.485
		c1.305-0.269,2.201-0.84,2.905-2.045c5.618-9.617,11.306-19.195,16.975-28.784c0.155-0.265,0.331-0.521,0.579-0.907
		c0.46,0.75,0.854,1.385,1.24,2.027c5.381,8.966,10.76,17.932,16.136,26.901c0.229,0.378,0.486,0.755,0.621,1.169
		c0.332,1.011,1.062,1.406,2.049,1.607c3.383,0.689,6.755,1.439,10.134,2.153c7.505,1.585,14.714,4.059,21.672,7.262
		c6.697,3.082,13.151,6.606,19.245,10.771c3.892,2.66,7.521,5.647,11.05,8.757c2.774,2.445,5.559,4.888,8.188,7.481
		c4.853,4.781,9.113,10.073,12.998,15.664c3.399,4.895,6.477,9.985,9.171,15.306c4.395,8.683,7.684,17.768,9.991,27.218
		c1.06,4.336,1.853,8.715,2.226,13.165c0.319,3.837,0.612,7.676,0.979,11.509c0.353,3.695,0.368,7.402,0.104,11.086
		c-0.304,4.194-0.78,8.388-1.431,12.544c-0.719,4.597-1.605,9.176-2.637,13.713c-0.666,2.93-1.672,5.789-2.627,8.646
		c-0.446,1.338-0.27,2.429,0.446,3.629c4.747,7.983,9.428,16.009,14.15,24.007c1.596,2.7,3.256,5.362,4.869,8.053
		C286.802,243.174,287.029,243.725,287.399,244.469 M129.764,215.6c-0.097-0.015-0.192-0.029-0.288-0.041
		c-0.241-7.109-0.482-14.218-0.731-21.531c-15.214,8.477-30.226,16.841-45.274,25.226c2.233,7.151,4.432,14.191,6.643,21.27
		c0.552,0,0.99,0,1.429,0c13.487,0.026,26.976,0.041,40.461,0.086c8.491,0.027,16.98,0.137,25.472,0.148
		c15.944,0.025,31.89,0.008,47.834,0.008c0.282,0,0.564,0.008,0.847-0.01c0.549-0.027,0.903-0.299,0.999-0.857
		c0.062-0.355,0.112-0.711,0.166-1.066c0.161-1.071,0.225-2.166,0.499-3.206c1.535-5.786,3.122-11.556,4.687-17.334
		c0.401-1.483,0.347-1.575-0.915-2.315c-9.396-5.52-18.781-11.052-28.179-16.565c-4.611-2.706-9.239-5.384-13.864-8.068
		c-0.211-0.123-0.466-0.174-0.764-0.28c0.21,2.839,0.4,5.553,0.616,8.266c0.219,2.757,0.53,5.51,0.678,8.271
		c0.145,2.69,0.514,5.373,0.542,8.064c-0.241,0.02-0.356,0.062-0.393,0.025c-6.9-6.974-13.796-13.951-20.755-20.994
		C142.877,201.689,136.32,208.645,129.764,215.6 M160.596,85.551v51.945c0.509-0.189,0.914-0.324,1.311-0.489
		c7.315-3.03,14.629-6.065,21.943-9.094c0.295-0.122,0.608-0.196,1.104-0.354c-3.463,8.052-6.817,15.856-10.249,23.836
		c4.997,0.27,9.767,0.451,14.522,0.806c4.73,0.353,9.48,0.452,14.251,1.086c-7.104,4.712-14.304,9.191-21.61,13.846
		c14.311,9.141,28.452,18.177,42.531,27.148c1.962-2.274,3.693-4.504,5.665-6.499c2-2.025,4.151-3.925,6.396-5.677
		c2.196-1.714,4.594-3.174,6.938-4.77c-1.608-2.757-3.168-5.478-4.772-8.171c-8.938-14.992-17.896-29.972-26.829-44.967
		c-6.896-11.575-13.761-23.167-20.645-34.748c-1.89-3.181-3.787-6.358-5.695-9.528c-0.642-1.063-0.847-1.136-1.94-0.708
		c-3.903,1.529-7.963,2.526-12.009,3.573C167.893,83.721,164.269,84.621,160.596,85.551 M70.873,196.432
		c2.683-1.243,42.29-25.125,42.883-25.823c-3.434-2.101-6.864-4.193-10.289-6.297c-3.399-2.088-6.854-4.091-10.168-6.451
		c4.471-0.918,8.91-1.689,13.359-2.416c4.454-0.728,8.896-1.536,13.439-2.326c-1.29-3.01-2.508-5.852-3.727-8.694
		c-1.236-2.88-2.494-5.751-3.704-8.642c-1.175-2.81-2.466-5.576-3.645-8.675c8.45,3.444,16.612,6.77,24.874,10.135V85.617
		c-7.827-1.456-15.525-3.364-23.097-5.81c-19.441,32.919-38.798,65.693-58.198,98.544c1.121,0.958,2.17,1.888,3.254,2.775
		c2.675,2.19,5.398,4.331,7.755,6.87c2.213,2.384,4.323,4.864,6.465,7.312C70.389,195.667,70.632,196.087,70.873,196.432
		 M53.78,243.718c-0.036,0.095-0.072,0.188-0.108,0.282c11.979,14.607,26.632,25.775,43.823,33.561
		c21.188,9.592,43.358,12.871,66.447,9.853c20.724-2.709,39.47-10.312,56.326-22.628c8.033-5.868,15.27-12.582,21.719-20.557H240.4
		c-9.704,0-19.406,0.037-29.109-0.035c-1.719-0.015-3.154,0.377-4.445,1.451c-0.186,0.153-0.381,0.299-0.581,0.434
		c-2.101,1.413-4.141,2.926-6.316,4.211c-4.292,2.535-8.676,4.911-13.24,6.934c-5.829,2.581-11.9,4.383-18.125,5.723
		c-6.537,1.408-13.172,1.92-19.828,2.214c-3.458,0.151-6.893-0.291-10.325-0.642c-4.352-0.447-8.696-0.916-12.963-1.947
		c-7.053-1.701-13.912-3.951-20.425-7.18c-5.993-2.974-11.746-6.34-17.042-10.453c-0.732-0.57-1.539-1.012-2.521-1.033
		c-3.013-0.067-6.024-0.213-9.037-0.228c-7.167-0.034-14.333-0.013-21.5-0.009C54.552,243.667,54.166,243.701,53.78,243.718
		 M32.09,205.868c0.297-0.443,0.526-0.755,0.724-1.087c1.439-2.418,2.876-4.84,4.307-7.264c3.76-6.373,7.526-12.742,11.261-19.128
		c0.357-0.61,0.68-1.325,0.729-2.012c0.097-1.388,0.107-2.803-0.045-4.184c-0.339-3.052-0.363-6.11-0.14-9.153
		c0.29-3.959,0.68-7.915,1.209-11.847c0.455-3.377,1.043-6.746,1.793-10.068c1.53-6.78,4.07-13.195,7.339-19.33
		c2.669-5.011,5.529-9.908,8.809-14.542c5.717-8.084,12.81-14.834,20.645-20.819c5.945-4.541,12.639-7.826,19.29-11.158
		c1.078-0.541,2.017-1.139,2.628-2.195c0.886-1.531,1.782-3.056,2.683-4.578c3.667-6.194,7.34-12.385,11.003-18.582
		c0.871-1.473,1.713-2.964,2.635-4.562c-0.357,0.029-0.557,0.024-0.747,0.062c-6.509,1.298-12.908,2.993-19.18,5.178
		c-8.54,2.975-16.674,6.796-24.344,11.585c-9.686,6.048-18.289,13.386-25.82,21.963c-6.874,7.829-12.749,16.364-17.632,25.566
		c-4.981,9.384-8.732,19.237-11.072,29.619c-1.452,6.437-2.342,12.954-2.674,19.533c-0.219,4.335-0.285,8.684,0.126,13.02
		c0.321,3.394,0.562,6.797,0.989,10.176c0.988,7.829,2.811,15.482,5.101,23.027C31.769,205.302,31.904,205.497,32.09,205.868
		 M169.065,45.23c0.232,0.454,0.313,0.634,0.413,0.803c2.929,4.994,5.846,9.996,8.795,14.978c2.314,3.911,4.698,7.781,6.993,11.703
		c0.741,1.268,1.702,2.183,3.025,2.814c2.433,1.16,4.835,2.383,7.235,3.606c7.547,3.846,14.334,8.762,20.368,14.693
		c2.349,2.308,4.538,4.78,6.755,7.219c2.814,3.096,5.501,6.3,7.793,9.811c5.307,8.13,9.437,16.808,12.279,26.104
		c2.384,7.8,3.686,15.779,4.214,23.896c0.271,4.18,0.118,8.367-0.284,12.527c-0.146,1.508,0.133,2.721,0.889,3.976
		c4.774,7.921,9.514,15.864,14.266,23.799c0.652,1.092,1.313,2.179,2.068,3.427c0.171-0.424,0.295-0.664,0.369-0.919
		c0.62-2.161,1.273-4.315,1.841-6.491c1.397-5.367,2.58-10.781,3.191-16.3c0.423-3.824,0.901-7.653,1.062-11.492
		c0.157-3.727-0.049-7.471-0.116-11.207c-0.062-3.375-0.493-6.717-0.957-10.057c-0.973-6.985-2.632-13.806-4.896-20.477
		c-3.024-8.907-7.092-17.326-11.992-25.351c-6.606-10.818-14.562-20.5-24.096-28.878c-8.34-7.328-17.578-13.262-27.607-17.977
		c-7.881-3.705-16.09-6.498-24.533-8.602C173.887,46.276,171.612,45.807,169.065,45.23 M175.389,166.959
		c5.733-3.62,11.407-7.202,17.083-10.786c-0.029-0.093-0.058-0.187-0.085-0.281c-7.571-0.454-15.144-0.908-22.895-1.373
		c2.94-6.854,5.796-13.503,8.65-20.152c-0.064-0.056-0.131-0.112-0.195-0.167c-7.363,3.051-14.726,6.103-22.157,9.182
		c-2.992-7.219-5.928-14.301-8.961-21.624c-2.809,7.222-5.521,14.202-8.266,21.256c-7.641-3.12-15.132-6.178-22.911-9.355
		c1.155,2.701,2.188,5.122,3.224,7.541c1.045,2.439,2.119,4.863,3.133,7.314c1.003,2.42,2.161,4.779,3.052,7.324
		c-7.453,1.305-14.74,2.468-22.257,3.815c0.452,0.307,0.644,0.446,0.845,0.57c2.672,1.641,5.345,3.282,8.02,4.92
		c3.361,2.058,6.729,4.105,10.082,6.174c1.031,0.636,1.062,0.859,0.392,1.8c-3.058,4.289-6.119,8.577-9.176,12.868
		c-0.575,0.809-1.13,1.635-1.815,2.63c7.038-0.892,13.835-1.867,20.796-2.736c0.106,3.67,0.203,7.157,0.31,10.645
		c0.107,3.51,0.225,7.019,0.348,10.828c0.527-0.526,0.847-0.821,1.14-1.142c0.679-0.739,1.337-1.498,2.021-2.233
		c1.859-2.002,3.712-4.013,5.6-5.988c2.363-2.471,4.749-4.92,7.146-7.359c0.683-0.694,1.004-0.685,1.778-0.116
		c0.257,0.19,0.493,0.413,0.716,0.643c0.923,0.955,1.824,1.928,2.754,2.874c3.163,3.212,6.348,6.403,9.496,9.629
		c0.896,0.918,1.696,1.929,2.548,2.892c0.141,0.16,0.313,0.291,0.472,0.437c0.075-0.03,0.149-0.061,0.225-0.089
		c-0.54-7.321-1.082-14.645-1.637-22.13c3.848,0.375,7.538,0.769,11.236,1.085c3.712,0.316,7.416,0.772,11.364,1.016
		C183.368,180.113,179.411,173.59,175.389,166.959 M281.197,240.764c-11.992-20.139-23.879-40.096-35.776-60.073
		c-0.241,0.085-0.396,0.12-0.533,0.19c-0.466,0.237-0.933,0.473-1.385,0.735c-5.069,2.929-9.381,6.753-13.191,11.173
		c-5.363,6.218-9.396,13.219-12.346,20.863c-2.043,5.296-3.521,10.766-5.022,16.228c-0.977,3.56-2.066,7.095-2.319,10.886h70.573
		V240.764z M182.788,75.48c-11.639-19.54-23.187-38.931-34.854-58.523c-11.777,19.93-23.441,39.668-35.179,59.533
		C136.294,85.37,159.518,84.868,182.788,75.48 M50.772,181.528c-0.314,0.496-0.555,0.853-0.772,1.224
		c-2.884,4.879-5.764,9.76-8.646,14.641c-5.54,9.379-11.081,18.758-16.622,28.137c-2.657,4.498-5.318,8.996-7.972,13.498
		c-0.211,0.357-0.379,0.742-0.591,1.164c2.7,0.254,68.896,0.144,69.88-0.129c-0.098-0.492-0.154-1.006-0.304-1.492
		c-1.175-3.838-2.291-7.698-3.572-11.502c-1.963-5.829-4.149-11.578-7.007-17.041c-1.581-3.021-3.019-6.137-5.353-8.701
		c-0.594-0.652-1.121-1.369-1.64-2.084c-2.481-3.422-5.052-6.765-8.148-9.667c-1.145-1.071-2.263-2.171-3.449-3.193
		C54.696,184.761,52.771,183.195,50.772,181.528 M202.602,244.193c-36.524,0-72.833,0-109.143,0.004
		c-0.027,0-0.062,0.035-0.08,0.064c-0.019,0.032-0.02,0.076-0.028,0.114C127.844,269.254,174.229,265.547,202.602,244.193
		 M52.364,171.023c0.102,0.031,0.204,0.064,0.307,0.096c0.13-0.191,0.273-0.374,0.391-0.574
		c17.754-30.082,35.506-60.165,53.255-90.25c0.017-0.027,0.005-0.083-0.015-0.115c-0.018-0.032-0.06-0.05-0.188-0.148
		c-18.963,9.348-33.386,23.399-43.176,42.187C54.96,137.527,51.578,153.834,52.364,171.023 M243.091,169.786
		c0.163-0.291,0.261-0.385,0.264-0.483c0.076-1.845,0.224-3.691,0.188-5.535c-0.04-2.081-0.163-4.17-0.396-6.239
		c-0.372-3.306-0.712-6.628-1.337-9.891c-1.806-9.421-5.079-18.342-9.645-26.771c-5.489-10.136-12.542-19.044-21.188-26.689
		c-6.091-5.386-12.769-9.885-20.055-13.485c-0.27-0.132-0.559-0.224-0.838-0.335c-0.048,0.055-0.097,0.109-0.146,0.164
		C207.632,110.235,225.324,139.949,243.091,169.786 M117.701,173.083c-0.077-0.076-0.153-0.152-0.229-0.227
		c-14.72,8.785-29.438,17.571-44.299,26.441c3.508,5.287,6.167,10.895,8.682,16.626c0.344-0.112,0.584-0.151,0.784-0.263
		c15.155-8.461,30.31-16.928,45.461-25.401c0.083-0.047,0.117-0.184,0.246-0.394c-8.258,1.1-16.403,2.185-24.849,3.311
		C108.347,186.316,113.024,179.699,117.701,173.083 M156.646,136.152c0.06-0.017,0.117-0.033,0.176-0.05V85.827
		c-6.427,0.869-12.781,0.637-19.185,0.207v49.012c0.064,0.016,0.129,0.033,0.192,0.05c2.923-7.529,5.847-15.058,8.771-22.587
		c0.09,0.007,0.18,0.015,0.271,0.022C150.129,120.405,153.388,128.278,156.646,136.152 M182.97,172.101
		c-0.053,0.054-0.104,0.108-0.157,0.162c3.747,6.19,7.495,12.379,11.372,18.781c-7.135-0.678-13.999-1.33-20.863-1.982
		c-0.022,0.083-0.048,0.167-0.071,0.251c13.562,7.962,27.125,15.927,40.768,23.936c2.735-5.423,5.424-10.75,8.14-16.131
		C209.02,188.73,195.996,180.416,182.97,172.101"/>
	<path d="M129.764,215.6c6.557-6.955,13.111-13.91,19.708-20.906c6.96,7.042,13.854,14.022,20.756,20.996
		c0.035,0.035,0.148-0.008,0.391-0.026c-0.028-2.69-0.396-5.374-0.541-8.063c-0.146-2.762-0.459-5.515-0.678-8.272
		c-0.216-2.712-0.406-5.427-0.617-8.265c0.298,0.106,0.554,0.156,0.765,0.28c4.625,2.683,9.252,5.362,13.863,8.068
		c9.398,5.514,18.785,11.045,28.18,16.566c1.262,0.739,1.317,0.832,0.915,2.314c-1.562,5.777-3.15,11.549-4.686,17.334
		c-0.275,1.04-0.338,2.136-0.499,3.205c-0.054,0.355-0.106,0.712-0.167,1.066c-0.095,0.561-0.45,0.83-0.999,0.859
		c-0.282,0.016-0.564,0.01-0.846,0.01c-15.945,0-31.891,0.018-47.835-0.008c-8.49-0.015-16.98-0.122-25.472-0.15
		c-13.486-0.043-26.974-0.058-40.461-0.084c-0.438-0.002-0.876,0-1.429,0c-2.21-7.078-4.409-14.119-6.643-21.271
		c15.05-8.386,30.062-16.749,45.274-25.226c0.249,7.313,0.49,14.421,0.732,21.53C129.572,215.57,129.667,215.586,129.764,215.6"/>
	<path d="M160.596,85.55c3.673-0.929,7.297-1.83,10.91-2.765c4.045-1.047,8.104-2.044,12.009-3.573
		c1.095-0.428,1.3-0.356,1.939,0.709c1.91,3.17,3.808,6.346,5.696,9.527c6.883,11.582,13.749,23.173,20.644,34.748
		c8.935,14.995,17.893,29.976,26.829,44.968c1.605,2.693,3.164,5.413,4.773,8.171c-2.346,1.595-4.741,3.055-6.938,4.769
		c-2.243,1.752-4.395,3.653-6.396,5.677c-1.972,1.995-3.702,4.226-5.665,6.499c-14.079-8.971-28.223-18.007-42.531-27.148
		c7.308-4.654,14.508-9.133,21.61-13.845c-4.771-0.634-9.521-0.734-14.251-1.087c-4.758-0.355-9.526-0.536-14.523-0.806
		c3.432-7.98,6.788-15.784,10.249-23.835c-0.493,0.157-0.808,0.232-1.102,0.353c-7.316,3.029-14.629,6.065-21.944,9.095
		c-0.396,0.164-0.802,0.299-1.312,0.488V85.55H160.596z"/>
	<path d="M70.873,196.43c-0.241-0.343-0.483-0.764-0.798-1.122c-2.142-2.449-4.252-4.928-6.465-7.313
		c-2.356-2.539-5.08-4.68-7.755-6.87c-1.084-0.887-2.132-1.817-3.254-2.775c19.4-32.85,38.758-65.625,58.198-98.544
		c7.571,2.447,15.27,4.355,23.097,5.81v51.627c-8.262-3.366-16.423-6.692-24.874-10.136c1.179,3.1,2.47,5.865,3.645,8.676
		c1.21,2.891,2.468,5.761,3.704,8.641c1.219,2.842,2.437,5.684,3.727,8.695c-4.543,0.789-8.985,1.598-13.439,2.326
		c-4.449,0.726-8.889,1.498-13.359,2.415c3.313,2.36,6.769,4.363,10.168,6.452c3.426,2.103,6.855,4.195,10.289,6.296
		C113.163,171.305,73.555,195.189,70.873,196.43"/>
	<path d="M53.78,243.718c0.386-0.018,0.773-0.051,1.159-0.051c7.167-0.004,14.333-0.024,21.5,0.009
		c3.013,0.016,6.024,0.159,9.037,0.229c0.982,0.021,1.789,0.462,2.521,1.031c5.296,4.114,11.049,7.48,17.042,10.455
		c6.512,3.228,13.372,5.478,20.425,7.178c4.267,1.031,8.611,1.502,12.962,1.947c3.435,0.352,6.868,0.795,10.326,0.643
		c6.656-0.294,13.291-0.807,19.828-2.215c6.225-1.34,12.296-3.141,18.125-5.721c4.564-2.022,8.948-4.398,13.24-6.935
		c2.177-1.285,4.217-2.798,6.317-4.211c0.199-0.136,0.396-0.279,0.579-0.433c1.291-1.074,2.729-1.466,4.446-1.453
		c9.703,0.074,19.405,0.035,29.109,0.035h1.587c-6.449,7.976-13.686,14.688-21.719,20.559
		c-16.856,12.314-35.604,19.919-56.326,22.627c-23.089,3.02-45.259-0.26-66.447-9.852C80.303,269.777,65.65,258.607,53.672,244
		C53.708,243.907,53.744,243.812,53.78,243.718"/>
	<path d="M32.09,205.868c-0.186-0.371-0.319-0.565-0.385-0.78c-2.29-7.545-4.113-15.198-5.102-23.027
		c-0.427-3.379-0.668-6.782-0.989-10.176c-0.411-4.336-0.345-8.685-0.126-13.019c0.332-6.579,1.223-13.097,2.674-19.534
		c2.34-10.382,6.091-20.235,11.072-29.619c4.884-9.202,10.758-17.737,17.633-25.566c7.531-8.577,16.135-15.915,25.82-21.962
		c7.669-4.79,15.804-8.611,24.343-11.586c6.271-2.185,12.671-3.88,19.18-5.178c0.19-0.038,0.39-0.034,0.747-0.063
		c-0.922,1.599-1.763,3.09-2.634,4.563c-3.663,6.197-7.337,12.388-11.003,18.582c-0.901,1.522-1.798,3.047-2.684,4.578
		c-0.611,1.056-1.55,1.654-2.628,2.195c-6.651,3.333-13.345,6.617-19.288,11.158c-7.837,5.985-14.929,12.735-20.646,20.819
		c-3.278,4.634-6.14,9.531-8.809,14.542c-3.269,6.135-5.809,12.55-7.338,19.33c-0.75,3.322-1.339,6.691-1.794,10.068
		c-0.529,3.932-0.919,7.888-1.209,11.847c-0.223,3.043-0.198,6.101,0.14,9.153c0.153,1.381,0.143,2.796,0.045,4.184
		c-0.048,0.687-0.371,1.402-0.728,2.012c-3.735,6.387-7.502,12.756-11.262,19.128c-1.431,2.424-2.867,4.846-4.306,7.265
		C32.616,205.113,32.386,205.424,32.09,205.868"/>
	<path d="M169.066,45.23c2.547,0.576,4.821,1.045,7.073,1.606c8.443,2.105,16.652,4.897,24.533,8.602
		c10.029,4.715,19.269,10.649,27.607,17.977c9.535,8.378,17.488,18.06,24.096,28.878c4.901,8.025,8.967,16.444,11.992,25.351
		c2.266,6.671,3.925,13.492,4.896,20.477c0.465,3.34,0.896,6.682,0.957,10.057c0.067,3.736,0.272,7.48,0.116,11.207
		c-0.161,3.839-0.64,7.668-1.062,11.492c-0.612,5.519-1.795,10.933-3.192,16.3c-0.566,2.177-1.22,4.33-1.842,6.491
		c-0.073,0.255-0.197,0.496-0.368,0.919c-0.755-1.248-1.416-2.335-2.07-3.427c-4.751-7.935-9.487-15.878-14.264-23.799
		c-0.757-1.255-1.034-2.468-0.889-3.976c0.4-4.16,0.557-8.347,0.285-12.526c-0.529-8.117-1.83-16.097-4.216-23.897
		c-2.843-9.297-6.973-17.975-12.278-26.104c-2.291-3.512-4.979-6.716-7.792-9.812c-2.218-2.439-4.407-4.911-6.755-7.219
		c-6.034-5.931-12.821-10.847-20.368-14.692c-2.401-1.224-4.807-2.447-7.237-3.607c-1.323-0.631-2.283-1.546-3.024-2.814
		c-2.296-3.922-4.68-7.792-6.992-11.703c-2.949-4.982-5.866-9.984-8.795-14.978C169.379,45.865,169.298,45.685,169.066,45.23"/>
	<path d="M175.389,166.96c4.021,6.63,7.979,13.153,12.074,19.908c-3.948-0.244-7.652-0.7-11.364-1.016
		c-3.698-0.316-7.39-0.71-11.236-1.085c0.555,7.487,1.097,14.809,1.637,22.131c-0.074,0.027-0.148,0.058-0.225,0.088
		c-0.157-0.146-0.331-0.275-0.472-0.437c-0.852-0.963-1.651-1.974-2.548-2.892c-3.148-3.227-6.332-6.417-9.496-9.629
		c-0.93-0.946-1.831-1.919-2.754-2.874c-0.223-0.23-0.459-0.453-0.716-0.644c-0.774-0.569-1.097-0.578-1.779,0.116
		c-2.396,2.439-4.782,4.888-7.146,7.358c-1.888,1.977-3.739,3.988-5.6,5.99c-0.685,0.734-1.343,1.494-2.021,2.232
		c-0.293,0.318-0.611,0.614-1.14,1.143c-0.123-3.811-0.239-7.319-0.347-10.828c-0.106-3.487-0.203-6.975-0.31-10.645
		c-6.962,0.869-13.759,1.844-20.797,2.736c0.686-0.995,1.24-1.821,1.815-2.63c3.057-4.291,6.118-8.579,9.176-12.868
		c0.67-0.941,0.64-1.165-0.392-1.8c-3.354-2.069-6.721-4.116-10.082-6.174c-2.675-1.638-5.348-3.279-8.02-4.921
		c-0.201-0.123-0.393-0.262-0.845-0.569c7.517-1.347,14.804-2.51,22.257-3.815c-0.89-2.545-2.049-4.904-3.052-7.324
		c-1.014-2.451-2.088-4.875-3.133-7.315c-1.036-2.418-2.068-4.839-3.224-7.54c7.779,3.177,15.271,6.235,22.912,9.355
		c2.742-7.054,5.456-14.034,8.265-21.256c3.033,7.323,5.969,14.405,8.961,21.624c7.433-3.079,14.794-6.131,22.158-9.182
		c0.063,0.055,0.13,0.111,0.194,0.167c-2.854,6.649-5.709,13.298-8.65,20.152c7.751,0.465,15.323,0.919,22.895,1.373
		c0.027,0.094,0.056,0.188,0.085,0.281C186.797,159.758,181.124,163.34,175.389,166.96"/>
	<path d="M281.198,240.766h-70.576c0.253-3.793,1.344-7.328,2.321-10.886c1.501-5.462,2.979-10.935,5.021-16.229
		c2.949-7.644,6.982-14.645,12.347-20.862c3.812-4.42,8.122-8.244,13.191-11.174c0.452-0.261,0.919-0.497,1.385-0.734
		c0.137-0.071,0.292-0.106,0.533-0.19C257.318,200.668,269.205,220.626,281.198,240.766"/>
	<path d="M182.787,75.481c-23.268,9.387-46.492,9.888-70.031,1.01c11.738-19.865,23.401-39.603,35.18-59.533
		C159.602,36.549,171.15,55.941,182.787,75.481"/>
	<path d="M50.772,181.527c1.999,1.667,3.924,3.233,5.803,4.854c1.187,1.023,2.306,2.123,3.45,3.194
		c3.097,2.901,5.667,6.245,8.148,9.666c0.519,0.715,1.046,1.432,1.639,2.084c2.335,2.565,3.771,5.68,5.353,8.7
		c2.858,5.464,5.044,11.213,7.008,17.041c1.281,3.806,2.397,7.666,3.572,11.504c0.148,0.486,0.206,1,0.304,1.492
		c-0.984,0.272-67.18,0.383-69.88,0.129c0.212-0.422,0.379-0.807,0.591-1.164c2.653-4.502,5.313-9,7.972-13.5
		c5.541-9.379,11.082-18.758,16.622-28.137c2.882-4.879,5.763-9.761,8.646-14.64C50.219,182.38,50.458,182.023,50.772,181.527"/>
	<path d="M202.602,244.193c-28.373,21.354-74.758,25.062-109.251,0.185c0.009-0.039,0.01-0.082,0.028-0.114
		c0.018-0.029,0.053-0.065,0.08-0.065C129.769,244.193,166.078,244.193,202.602,244.193"/>
	<path d="M52.365,171.023c-0.786-17.188,2.596-33.496,10.573-48.804c9.79-18.788,24.213-32.839,43.176-42.187
		c0.128,0.098,0.171,0.116,0.189,0.148c0.018,0.032,0.029,0.088,0.014,0.116c-17.75,30.084-35.501,60.167-53.255,90.249
		c-0.117,0.2-0.261,0.384-0.392,0.574C52.568,171.088,52.466,171.054,52.365,171.023"/>
	<path d="M243.091,169.786c-17.768-29.837-35.459-59.551-53.151-89.264c0.049-0.055,0.098-0.109,0.146-0.164
		c0.279,0.111,0.568,0.203,0.838,0.335c7.286,3.601,13.963,8.099,20.055,13.485c8.646,7.646,15.698,16.553,21.188,26.689
		c4.564,8.429,7.839,17.35,9.645,26.771c0.625,3.263,0.965,6.585,1.337,9.891c0.232,2.069,0.355,4.158,0.396,6.239
		c0.036,1.844-0.11,3.69-0.188,5.535C243.351,169.4,243.254,169.496,243.091,169.786"/>
	<path d="M117.701,173.083c-4.677,6.616-9.354,13.233-14.204,20.093c8.445-1.125,16.591-2.21,24.849-3.31
		c-0.129,0.21-0.162,0.347-0.246,0.394c-15.151,8.473-30.306,16.94-45.461,25.4c-0.2,0.111-0.44,0.15-0.784,0.264
		c-2.515-5.73-5.174-11.341-8.682-16.626c14.86-8.87,29.579-17.656,44.3-26.442C117.548,172.931,117.625,173.007,117.701,173.083"/>
	<path d="M156.647,136.152c-3.259-7.874-6.519-15.747-9.776-23.621c-0.09-0.008-0.18-0.015-0.27-0.022
		c-2.926,7.529-5.849,15.058-8.771,22.587c-0.062-0.017-0.128-0.034-0.191-0.05V86.034c6.401,0.43,12.758,0.662,19.185-0.208v50.276
		C156.763,136.119,156.706,136.135,156.647,136.152"/>
	<path d="M182.97,172.101c13.024,8.315,26.05,16.63,39.187,25.017c-2.716,5.381-5.403,10.708-8.14,16.131
		c-13.643-8.009-27.205-15.974-40.768-23.936c0.023-0.084,0.049-0.168,0.071-0.251c6.864,0.652,13.729,1.304,20.863,1.982
		c-3.877-6.402-7.625-12.591-11.372-18.781C182.866,172.208,182.918,172.155,182.97,172.101"/>
	<polygon points="77.009,374.587 98.567,374.587 98.567,378.941 71.827,378.941 71.827,329.191 77.009,329.191 	"/>
	<path d="M137.056,329.191v36.689c0,9.396-7.049,14.026-13.75,14.026c-5.39,0-13.819-3.04-13.819-16.79v-33.926h5.182v36.688
		c0,7.187,4.629,9.673,8.638,9.673c6.355,0,8.566-4.697,8.566-10.295v-36.066H137.056L137.056,329.191z"/>
	<path d="M182.456,378.939h-5.598l-4.422-14.647h-15.131l-4.423,14.647h-5.598l17.551-53.895L182.456,378.939z M158.548,359.939
		h12.646l-6.356-20.107L158.548,359.939z"/>
	<path d="M194.549,329.191h12.923c12.438,0,13.543,11.192,13.543,14.096c0,5.113-1.936,9.812-8.846,13.75l13.405,21.902h-6.288
		l-12.093-20.729c-2.486,0.068-4.975,0.068-7.462,0.139v20.59h-5.184L194.549,329.191L194.549,329.191z M204.638,353.928
		c7.048,0,11.193-3.594,11.193-10.919c0-6.632-2.766-9.466-10.985-9.466h-5.114v20.385H204.638z"/>
</g>
<path fill-rule="evenodd" clip-rule="evenodd" d="M145.717-25.296c1.646,2.77,3.188,5.358,4.722,7.952
	c3.767,6.368,7.513,12.748,11.296,19.107c4.359,7.328,8.748,14.637,13.124,21.954c0.144,0.242,0.311,0.474,0.432,0.726
	c0.252,0.517,0.663,0.703,1.22,0.836c4.1,0.98,8.214,1.918,12.274,3.04c5.667,1.565,11.116,3.752,16.446,6.221
	c7.271,3.37,14.288,7.207,20.935,11.702c4.271,2.889,8.295,6.091,12.179,9.472c3.85,3.353,7.7,6.707,11.265,10.373
	c4.182,4.302,8.015,8.898,11.568,13.729c5.497,7.475,10.271,15.384,14.252,23.765c3.594,7.57,6.47,15.408,8.688,23.49
	c1.415,5.155,2.592,10.365,3.282,15.667c0.424,3.261,0.77,6.536,1.013,9.814c0.33,4.441,0.674,8.89,0.743,13.341
	c0.085,5.381-0.431,10.739-1.148,16.078c-0.859,6.37-1.975,12.691-3.423,18.952c-0.306,1.33-0.68,2.647-1.091,3.949
	c-0.183,0.583-0.157,1.054,0.122,1.604c3.88,7.639,7.751,15.279,11.598,22.934c2.402,4.779,4.775,9.576,7.136,14.377
	c2.628,5.34,5.229,10.692,7.838,16.043c0.119,0.246,0.206,0.505,0.356,0.881c-0.391,0.029-0.69,0.071-0.989,0.071
	c-4.27,0.005-8.537,0.016-12.806,0c-13.282-0.046-26.565-0.103-39.849-0.161c-1.086-0.005-2.175-0.003-3.256-0.093
	c-0.772-0.064-1.287,0.236-1.776,0.78c-1.074,1.197-2.159,2.386-3.289,3.529c-1.385,1.402-2.789,2.79-4.24,4.124
	c-2.247,2.065-4.516,4.111-6.824,6.108c-4.235,3.662-8.795,6.895-13.47,9.97c-4.338,2.854-8.831,5.449-13.468,7.779
	c-5.426,2.728-11.003,5.116-16.723,7.171c-6.521,2.34-13.18,4.164-19.993,5.384c-4.144,0.743-8.319,1.323-12.495,1.862
	c-2.264,0.293-4.557,0.382-6.839,0.5c-3.689,0.19-7.382,0.473-11.071,0.445c-3.24-0.025-6.482-0.394-9.719-0.668
	c-2.358-0.199-4.706-0.499-7.06-0.737c-5.484-0.56-10.882-1.582-16.21-2.98c-6.812-1.787-13.481-3.999-19.982-6.715
	c-7.327-3.061-14.337-6.726-21.034-10.99c-5.57-3.549-10.96-7.342-15.944-11.685c-1.726-1.504-3.417-3.054-5.065-4.644
	c-2.694-2.598-5.34-5.247-8.006-7.875c-0.171-0.17-0.387-0.314-0.505-0.517c-0.8-1.379-2.047-1.5-3.501-1.497
	c-18.685,0.038-37.369,0.024-56.054,0.024h-1.543c0.089-0.31,0.112-0.543,0.216-0.729c5.42-9.774,10.789-19.576,16.297-29.301
	c3.388-5.981,6.989-11.844,10.495-17.76c0.84-1.418,1.636-2.864,2.532-4.246c0.567-0.875,0.649-1.675,0.349-2.688
	c-1.039-3.504-1.988-7.035-2.931-10.567c-0.831-3.109-1.305-6.287-1.689-9.476c-0.374-3.106-0.74-6.214-1.022-9.33
	c-0.18-1.997-0.214-4.008-0.292-6.014c-0.07-1.806-0.194-3.615-0.148-5.419c0.111-4.331,0.27-8.661,0.843-12.967
	c0.396-2.98,0.621-5.984,1.008-8.965c0.633-4.867,1.693-9.652,2.985-14.382c2.185-8,4.963-15.791,8.409-23.339
	c2.242-4.911,4.775-9.665,7.78-14.149c3.023-4.51,6.086-8.997,9.25-13.409c2.86-3.988,6.076-7.688,9.483-11.231
	c7.303-7.597,15.336-14.318,24.098-20.151c11.038-7.349,22.843-13.152,35.501-17.164c4.292-1.361,8.66-2.441,13.074-3.323
	c0.941-0.188,1.537-0.609,2.023-1.444c5.849-10.041,11.75-20.052,17.6-30.092c3.482-5.975,6.897-11.989,10.344-17.983
	C145.213-24.538,145.417-24.828,145.717-25.296 M287.279,244.434c-0.37-0.745-0.597-1.295-0.9-1.8
	c-1.614-2.689-3.274-5.352-4.869-8.053c-4.723-7.998-9.404-16.022-14.151-24.006c-0.716-1.201-0.893-2.292-0.446-3.63
	c0.955-2.856,1.96-5.715,2.627-8.646c1.03-4.537,1.917-9.116,2.637-13.713c0.649-4.156,1.127-8.351,1.431-12.544
	c0.265-3.684,0.248-7.391-0.104-11.086c-0.364-3.833-0.656-7.672-0.978-11.51c-0.373-4.449-1.166-8.827-2.225-13.165
	c-2.308-9.449-5.598-18.535-9.992-27.218c-2.694-5.321-5.771-10.411-9.17-15.306c-3.886-5.591-8.146-10.883-12.997-15.664
	c-2.631-2.593-5.415-5.036-8.188-7.48c-3.528-3.111-7.16-6.098-11.05-8.758c-6.095-4.165-12.549-7.689-19.246-10.771
	c-6.958-3.203-14.167-5.677-21.671-7.262c-3.38-0.714-6.751-1.463-10.135-2.153c-0.986-0.201-1.716-0.596-2.048-1.607
	c-0.136-0.414-0.394-0.791-0.62-1.169c-5.377-8.969-10.756-17.935-16.136-26.901c-0.386-0.642-0.781-1.277-1.241-2.027
	c-0.248,0.387-0.423,0.642-0.58,0.907c-5.668,9.589-11.355,19.167-16.975,28.784c-0.702,1.205-1.601,1.776-2.905,2.045
	c-3.815,0.785-7.629,1.584-11.418,2.485c-13.207,3.142-25.339,8.769-36.714,16.09c-5.486,3.53-10.635,7.512-15.501,11.867
	c-3.931,3.517-7.68,7.204-11.093,11.23c-3.335,3.932-6.302,8.138-9.197,12.396c-2.94,4.325-5.814,8.693-8.169,13.378
	c-2.805,5.579-5.1,11.364-7.067,17.285c-1.903,5.729-3.49,11.537-4.389,17.513c-0.435,2.894-0.789,5.8-1.11,8.709
	c-0.294,2.67-0.582,5.347-0.711,8.027c-0.136,2.813-0.092,5.633-0.1,8.451c-0.003,1.286-0.012,2.58,0.106,3.859
	c0.262,2.834,0.642,5.656,0.903,8.49c0.437,4.731,1.274,9.379,2.611,13.942c1.277,4.356,2.476,8.736,3.737,13.096
	c0.261,0.903,0.25,1.703-0.247,2.538c-3.458,5.805-6.897,11.618-10.331,17.438c-2.658,4.501-5.302,9.011-7.944,13.521
	c-0.276,0.472-0.502,0.971-0.83,1.61H11.4h34.913c0.322,0,0.644-0.002,0.967,0.002c0.891,0.01,1.623,0.302,2.185,1.049
	c0.7,0.932,1.476,1.806,2.204,2.715c3.052,3.814,6.673,7.077,10.155,10.475c1.581,1.544,3.185,3.073,4.869,4.502
	c6.927,5.877,14.464,10.861,22.475,15.127c7.12,3.79,14.583,6.761,22.298,9.095c5.08,1.536,10.216,2.849,15.491,3.524
	c2.784,0.355,5.573,0.675,8.364,0.972c4.705,0.5,9.398,1.141,14.157,0.721c2.757-0.242,5.524-0.377,8.291-0.484
	c3.699-0.146,7.35-0.667,10.995-1.262c6.112-0.996,12.142-2.35,18.032-4.287c7.156-2.356,14.067-5.287,20.705-8.859
	c6.463-3.478,12.606-7.45,18.322-12.048c2.723-2.188,5.337-4.521,7.876-6.92c2.834-2.678,5.562-5.474,8.268-8.283
	c1.251-1.301,2.337-2.757,3.491-4.148c0.725-0.873,1.528-1.408,2.78-1.354c3.132,0.139,6.27,0.153,9.405,0.185
	c4.186,0.045,8.372,0.071,12.559,0.082c5.155,0.015,10.31,0.003,15.463,0.003H287.279z"/>
</svg>
