<?xml version="1.0" encoding="utf-8"?>
<!-- Generator: Adobe Illustrator 16.0.0, SVG Export Plug-In . SVG Version: 6.00 Build 0)  -->
<!DOCTYPE svg PUBLIC "-//W3C//DTD SVG 1.1//EN" "http://www.w3.org/Graphics/SVG/1.1/DTD/svg11.dtd">
<svg version="1.1" id="Layer_1" xmlns="http://www.w3.org/2000/svg" xmlns:xlink="http://www.w3.org/1999/xlink" x="0px" y="0px"
	 width="297.4px" height="389.91px" viewBox="0 0 297.4 389.91" enable-background="new 0 0 297.4 389.91" xml:space="preserve">
<g>
	<path fill-rule="evenodd" clip-rule="evenodd" fill="none" d="M287.399,244.469c-0.37-0.745-0.597-1.295-0.9-1.8
		c-1.614-2.689-3.274-5.352-4.869-8.053c-4.723-7.998-9.404-16.022-14.151-24.006c-0.716-1.201-0.893-2.292-0.446-3.63
		c0.955-2.856,1.96-5.715,2.627-8.646c1.03-4.537,1.917-9.116,2.637-13.713c0.649-4.156,1.127-8.35,1.431-12.544
		c0.265-3.684,0.248-7.391-0.104-11.086c-0.364-3.833-0.656-7.672-0.978-11.509c-0.373-4.45-1.166-8.828-2.225-13.165
		c-2.308-9.449-5.598-18.535-9.992-27.218c-2.694-5.321-5.771-10.411-9.17-15.306c-3.886-5.591-8.146-10.883-12.997-15.664
		c-2.631-2.593-5.415-5.036-8.188-7.48c-3.528-3.111-7.16-6.098-11.05-8.758c-6.095-4.165-12.549-7.689-19.246-10.771
		c-6.958-3.203-14.167-5.677-21.671-7.262c-3.38-0.714-6.751-1.463-10.135-2.153c-0.986-0.201-1.716-0.596-2.048-1.607
		c-0.136-0.414-0.394-0.791-0.62-1.169c-5.377-8.969-10.756-17.935-16.136-26.901c-0.386-0.642-0.781-1.277-1.241-2.027
		c-0.248,0.387-0.423,0.642-0.58,0.907c-5.668,9.589-11.355,19.167-16.975,28.784c-0.702,1.205-1.601,1.776-2.905,2.045
		c-3.815,0.785-7.629,1.584-11.418,2.485c-13.207,3.142-25.339,8.769-36.714,16.09c-5.486,3.53-10.635,7.512-15.501,11.867
		c-3.931,3.517-7.68,7.204-11.093,11.23c-3.335,3.932-6.302,8.138-9.197,12.396c-2.94,4.325-5.814,8.693-8.169,13.378
		c-2.805,5.579-5.1,11.364-7.067,17.285c-1.903,5.729-3.49,11.537-4.389,17.513c-0.435,2.894-0.789,5.8-1.11,8.709
		c-0.294,2.67-0.582,5.347-0.711,8.028c-0.136,2.813-0.092,5.633-0.1,8.451c-0.003,1.286-0.012,2.58,0.106,3.859
		c0.262,2.834,0.642,5.657,0.903,8.491c0.437,4.731,1.274,9.379,2.611,13.942c1.277,4.357,2.476,8.736,3.737,13.096
		c0.261,0.903,0.25,1.703-0.247,2.538c-3.458,5.805-6.897,11.618-10.331,17.438c-2.658,4.501-5.302,9.011-7.944,13.521
		c-0.276,0.472-0.502,0.971-0.83,1.61h1.518h34.913c0.322,0,0.644-0.002,0.967,0.002c0.891,0.01,1.623,0.302,2.185,1.049
		c0.7,0.932,1.476,1.806,2.204,2.715c3.052,3.814,6.673,7.077,10.155,10.475c1.581,1.544,3.185,3.073,4.869,4.502
		c6.927,5.877,14.464,10.861,22.475,15.127c7.12,3.79,14.583,6.761,22.298,9.095c5.08,1.536,10.216,2.849,15.491,3.524
		c2.784,0.355,5.573,0.675,8.364,0.972c4.705,0.5,9.398,1.141,14.157,0.721c2.757-0.242,5.524-0.377,8.291-0.484
		c3.699-0.146,7.35-0.667,10.995-1.262c6.112-0.996,12.142-2.35,18.032-4.287c7.156-2.356,14.067-5.287,20.705-8.859
		c6.463-3.478,12.606-7.45,18.322-12.048c2.723-2.188,5.337-4.521,7.876-6.92c2.834-2.678,5.562-5.474,8.268-8.283
		c1.251-1.301,2.337-2.757,3.491-4.148c0.725-0.873,1.528-1.408,2.78-1.354c3.132,0.139,6.27,0.153,9.405,0.185
		c4.186,0.045,8.372,0.071,12.559,0.082c5.155,0.015,10.31,0.003,15.463,0.003H287.399z"/>
	<path fill-rule="evenodd" clip-rule="evenodd" d="M287.399,244.469h-1.613c-5.153,0-10.309,0.012-15.463-0.003
		c-4.187-0.011-8.374-0.038-12.559-0.082c-3.137-0.031-6.274-0.046-9.405-0.185c-1.252-0.055-2.056,0.48-2.779,1.354
		c-1.155,1.392-2.242,2.848-3.493,4.148c-2.704,2.81-5.433,5.606-8.267,8.283c-2.539,2.399-5.153,4.731-7.876,6.92
		c-5.717,4.598-11.859,8.57-18.321,12.048c-6.639,3.572-13.55,6.503-20.706,8.859c-5.892,1.938-11.919,3.29-18.032,4.288
		c-3.646,0.594-7.296,1.114-10.995,1.261c-2.766,0.107-5.534,0.242-8.291,0.484c-4.759,0.421-9.453-0.221-14.157-0.721
		c-2.791-0.297-5.581-0.616-8.364-0.972c-5.275-0.676-10.411-1.988-15.491-3.524c-7.716-2.334-15.178-5.305-22.298-9.096
		c-8.011-4.264-15.549-9.249-22.475-15.126c-1.684-1.429-3.288-2.958-4.87-4.502c-3.481-3.397-7.103-6.66-10.154-10.475
		c-0.728-0.909-1.505-1.783-2.204-2.715c-0.562-0.747-1.295-1.039-2.185-1.049c-0.323-0.004-0.645-0.002-0.967-0.002H11.52h-1.519
		c0.329-0.64,0.555-1.14,0.831-1.61c2.642-4.51,5.286-9.02,7.943-13.521c3.435-5.819,6.874-11.633,10.332-17.438
		c0.497-0.835,0.508-1.635,0.247-2.537c-1.262-4.36-2.46-8.74-3.737-13.097c-1.338-4.562-2.175-9.211-2.611-13.942
		c-0.262-2.834-0.641-5.657-0.903-8.491c-0.119-1.279-0.11-2.573-0.106-3.859c0.007-2.818-0.036-5.639,0.099-8.451
		c0.129-2.681,0.418-5.358,0.712-8.028c0.321-2.909,0.674-5.815,1.11-8.709c0.899-5.976,2.486-11.784,4.389-17.513
		c1.967-5.921,4.262-11.706,7.066-17.285c2.355-4.685,5.229-9.053,8.17-13.378c2.894-4.258,5.861-8.464,9.196-12.396
		c3.413-4.026,7.163-7.714,11.094-11.231c4.866-4.354,10.015-8.336,15.501-11.866c11.375-7.321,23.507-12.948,36.714-16.09
		c3.789-0.901,7.603-1.7,11.418-2.485c1.304-0.269,2.201-0.84,2.905-2.045c5.618-9.617,11.306-19.195,16.974-28.784
		c0.156-0.265,0.332-0.52,0.58-0.907c0.46,0.75,0.854,1.385,1.24,2.027c5.381,8.966,10.76,17.932,16.136,26.901
		c0.228,0.378,0.486,0.755,0.621,1.169c0.332,1.011,1.062,1.406,2.048,1.607c3.383,0.689,6.755,1.439,10.134,2.153
		c7.505,1.585,14.714,4.059,21.672,7.262c6.697,3.082,13.151,6.606,19.245,10.771c3.892,2.66,7.522,5.647,11.05,8.757
		c2.774,2.445,5.559,4.888,8.188,7.481c4.852,4.781,9.113,10.073,12.998,15.664c3.399,4.895,6.476,9.985,9.17,15.306
		c4.395,8.683,7.684,17.768,9.992,27.218c1.059,4.336,1.852,8.715,2.225,13.165c0.32,3.837,0.613,7.676,0.979,11.509
		c0.352,3.695,0.368,7.402,0.103,11.086c-0.303,4.194-0.78,8.388-1.43,12.544c-0.719,4.597-1.606,9.176-2.637,13.713
		c-0.666,2.93-1.672,5.789-2.627,8.646c-0.446,1.338-0.27,2.429,0.446,3.63c4.747,7.983,9.428,16.008,14.151,24.006
		c1.595,2.701,3.255,5.363,4.869,8.053C286.802,243.174,287.029,243.725,287.399,244.469 M129.764,215.6
		c-0.096-0.015-0.192-0.029-0.288-0.042c-0.241-7.109-0.482-14.217-0.731-21.53c-15.214,8.477-30.226,16.841-45.275,25.226
		c2.234,7.151,4.432,14.192,6.643,21.27c0.552,0,0.99,0,1.429,0c13.487,0.026,26.975,0.041,40.461,0.085
		c8.491,0.028,16.98,0.137,25.471,0.149c15.945,0.025,31.89,0.007,47.834,0.007c0.283,0,0.565,0.008,0.847-0.009
		c0.549-0.028,0.903-0.299,0.999-0.858c0.062-0.355,0.112-0.711,0.166-1.066c0.161-1.071,0.225-2.166,0.499-3.206
		c1.535-5.786,3.122-11.556,4.687-17.334c0.401-1.483,0.346-1.575-0.915-2.315c-9.396-5.52-18.782-11.052-28.179-16.566
		c-4.611-2.706-9.239-5.384-13.864-8.068c-0.211-0.123-0.466-0.174-0.764-0.28c0.21,2.839,0.4,5.553,0.616,8.266
		c0.219,2.757,0.53,5.51,0.678,8.271c0.144,2.69,0.514,5.373,0.542,8.064c-0.241,0.02-0.357,0.062-0.393,0.026
		c-6.9-6.974-13.796-13.952-20.755-20.995C142.877,201.689,136.32,208.645,129.764,215.6 M160.596,85.551v51.945
		c0.509-0.189,0.915-0.324,1.311-0.489c7.315-3.03,14.629-6.065,21.943-9.094c0.295-0.122,0.609-0.196,1.104-0.354
		c-3.463,8.052-6.818,15.856-10.249,23.836c4.997,0.27,9.766,0.451,14.522,0.806c4.731,0.353,9.481,0.452,14.251,1.086
		c-7.103,4.712-14.303,9.191-21.61,13.846c14.31,9.141,28.452,18.177,42.531,27.148c1.962-2.274,3.694-4.504,5.665-6.499
		c2-2.025,4.152-3.925,6.396-5.677c2.196-1.714,4.593-3.174,6.938-4.77c-1.608-2.757-3.168-5.478-4.772-8.171
		c-8.939-14.992-17.897-29.972-26.829-44.967c-6.896-11.575-13.761-23.167-20.645-34.748c-1.89-3.181-3.787-6.358-5.695-9.528
		c-0.642-1.063-0.847-1.136-1.941-0.708c-3.903,1.529-7.963,2.526-12.008,3.573C167.893,83.721,164.269,84.621,160.596,85.551
		 M70.873,196.431c2.682-1.242,42.29-25.125,42.883-25.822c-3.434-2.101-6.865-4.193-10.289-6.297
		c-3.4-2.088-6.855-4.091-10.168-6.451c4.47-0.918,8.91-1.689,13.359-2.416c4.454-0.728,8.896-1.536,13.439-2.326
		c-1.29-3.01-2.507-5.852-3.726-8.694c-1.236-2.88-2.494-5.751-3.704-8.642c-1.175-2.81-2.466-5.576-3.645-8.675
		c8.45,3.444,16.613,6.77,24.874,10.135V85.617c-7.827-1.456-15.525-3.364-23.096-5.81c-19.442,32.919-38.798,65.693-58.199,98.544
		c1.121,0.958,2.17,1.888,3.254,2.775c2.675,2.19,5.399,4.331,7.755,6.87c2.213,2.384,4.323,4.864,6.465,7.312
		C70.389,195.667,70.632,196.087,70.873,196.431 M53.78,243.718c-0.036,0.095-0.072,0.188-0.108,0.282
		c11.978,14.607,26.631,25.776,43.823,33.561c21.188,9.592,43.358,12.871,66.447,9.852c20.724-2.709,39.47-10.312,56.326-22.628
		c8.034-5.868,15.27-12.582,21.719-20.557H240.4c-9.704,0-19.406,0.038-29.109-0.035c-1.719-0.014-3.155,0.378-4.446,1.452
		c-0.185,0.153-0.38,0.298-0.581,0.433c-2.1,1.413-4.14,2.926-6.316,4.211c-4.292,2.535-8.676,4.911-13.24,6.933
		c-5.829,2.582-11.901,4.383-18.125,5.723c-6.537,1.408-13.172,1.92-19.828,2.214c-3.458,0.152-6.893-0.291-10.326-0.642
		c-4.351-0.446-8.696-0.916-12.962-1.947c-7.053-1.701-13.913-3.951-20.425-7.18c-5.993-2.973-11.746-6.339-17.042-10.453
		c-0.733-0.57-1.539-1.011-2.522-1.032c-3.012-0.068-6.024-0.213-9.037-0.228c-7.167-0.034-14.333-0.013-21.5-0.009
		C54.552,243.667,54.166,243.701,53.78,243.718 M32.09,205.868c0.296-0.443,0.526-0.755,0.723-1.087
		c1.44-2.418,2.876-4.839,4.307-7.263c3.76-6.373,7.526-12.742,11.261-19.129c0.357-0.61,0.679-1.325,0.728-2.012
		c0.097-1.388,0.108-2.803-0.045-4.184c-0.339-3.052-0.363-6.11-0.139-9.153c0.29-3.959,0.679-7.915,1.209-11.847
		c0.455-3.377,1.043-6.746,1.793-10.068c1.53-6.78,4.07-13.195,7.338-19.33c2.669-5.011,5.53-9.908,8.809-14.542
		c5.717-8.084,12.81-14.834,20.645-20.819c5.945-4.541,12.638-7.826,19.29-11.158c1.078-0.541,2.016-1.139,2.627-2.195
		c0.886-1.531,1.783-3.056,2.683-4.578c3.667-6.194,7.34-12.385,11.003-18.582c0.871-1.473,1.713-2.964,2.635-4.562
		c-0.358,0.029-0.557,0.024-0.747,0.062c-6.509,1.298-12.908,2.993-19.18,5.178c-8.54,2.975-16.674,6.796-24.344,11.585
		c-9.685,6.048-18.289,13.386-25.82,21.963c-6.874,7.829-12.749,16.364-17.632,25.566c-4.981,9.384-8.732,19.237-11.072,29.619
		c-1.452,6.437-2.342,12.954-2.674,19.533c-0.219,4.335-0.285,8.684,0.126,13.02c0.321,3.394,0.563,6.797,0.989,10.176
		c0.989,7.829,2.811,15.482,5.101,23.027C31.769,205.302,31.904,205.497,32.09,205.868 M169.065,45.23
		c0.233,0.454,0.314,0.634,0.413,0.803c2.929,4.994,5.846,9.996,8.795,14.978c2.315,3.911,4.698,7.781,6.993,11.703
		c0.742,1.268,1.703,2.183,3.026,2.814c2.432,1.16,4.835,2.383,7.235,3.606c7.547,3.846,14.334,8.762,20.368,14.693
		c2.349,2.308,4.538,4.78,6.755,7.219c2.815,3.096,5.501,6.3,7.793,9.811c5.307,8.13,9.437,16.808,12.279,26.104
		c2.384,7.8,3.686,15.779,4.214,23.896c0.272,4.18,0.118,8.367-0.284,12.527c-0.146,1.508,0.133,2.721,0.889,3.976
		c4.774,7.921,9.513,15.864,14.265,23.799c0.653,1.092,1.314,2.179,2.069,3.427c0.171-0.424,0.295-0.664,0.369-0.919
		c0.62-2.161,1.273-4.315,1.841-6.491c1.397-5.367,2.58-10.781,3.191-16.3c0.423-3.824,0.901-7.653,1.062-11.492
		c0.157-3.727-0.049-7.471-0.117-11.207c-0.062-3.375-0.493-6.717-0.957-10.057c-0.972-6.985-2.631-13.806-4.896-20.477
		c-3.025-8.907-7.092-17.326-11.992-25.351c-6.607-10.818-14.562-20.5-24.096-28.878c-8.34-7.328-17.578-13.262-27.607-17.977
		c-7.881-3.705-16.09-6.498-24.534-8.602C173.887,46.276,171.612,45.807,169.065,45.23 M175.389,166.959
		c5.734-3.62,11.408-7.202,17.083-10.786c-0.029-0.093-0.057-0.187-0.085-0.281c-7.571-0.454-15.143-0.908-22.894-1.373
		c2.94-6.854,5.796-13.503,8.65-20.152c-0.064-0.056-0.131-0.112-0.195-0.167c-7.363,3.051-14.726,6.103-22.157,9.182
		c-2.992-7.219-5.928-14.301-8.961-21.624c-2.809,7.222-5.522,14.202-8.266,21.256c-7.64-3.12-15.132-6.178-22.911-9.355
		c1.155,2.701,2.188,5.122,3.224,7.541c1.045,2.439,2.119,4.863,3.133,7.314c1.002,2.42,2.161,4.779,3.051,7.324
		c-7.453,1.305-14.74,2.468-22.257,3.815c0.453,0.307,0.644,0.446,0.845,0.57c2.672,1.641,5.345,3.282,8.02,4.92
		c3.361,2.058,6.728,4.105,10.082,6.174c1.031,0.636,1.061,0.859,0.391,1.8c-3.057,4.289-6.119,8.577-9.175,12.868
		c-0.576,0.809-1.13,1.635-1.816,2.63c7.038-0.892,13.835-1.867,20.796-2.736c0.106,3.67,0.203,7.157,0.31,10.644
		c0.107,3.51,0.224,7.019,0.347,10.829c0.528-0.527,0.847-0.822,1.14-1.142c0.679-0.739,1.337-1.498,2.021-2.233
		c1.86-2.002,3.712-4.013,5.6-5.989c2.363-2.471,4.749-4.92,7.146-7.359c0.683-0.694,1.004-0.685,1.779-0.116
		c0.257,0.19,0.493,0.413,0.716,0.643c0.922,0.955,1.824,1.928,2.754,2.874c3.163,3.212,6.347,6.403,9.496,9.629
		c0.896,0.918,1.696,1.929,2.547,2.892c0.141,0.16,0.314,0.291,0.472,0.436c0.075-0.03,0.15-0.06,0.225-0.088
		c-0.54-7.322-1.082-14.645-1.637-22.131c3.848,0.375,7.538,0.769,11.236,1.085c3.712,0.316,7.416,0.772,11.365,1.016
		C183.368,180.113,179.411,173.59,175.389,166.959 M281.197,240.764c-11.992-20.139-23.879-40.096-35.776-60.073
		c-0.242,0.085-0.397,0.12-0.534,0.19c-0.465,0.237-0.932,0.473-1.384,0.735c-5.07,2.929-9.381,6.753-13.192,11.173
		c-5.363,6.218-9.396,13.219-12.345,20.863c-2.043,5.296-3.522,10.766-5.023,16.228c-0.976,3.559-2.066,7.094-2.319,10.885H281.197z
		 M182.788,75.48c-11.639-19.54-23.187-38.931-34.854-58.523c-11.777,19.93-23.441,39.668-35.178,59.533
		C136.294,85.37,159.518,84.868,182.788,75.48 M50.772,181.528c-0.314,0.496-0.554,0.853-0.772,1.224
		c-2.884,4.879-5.764,9.76-8.647,14.64c-5.54,9.379-11.081,18.758-16.622,28.137c-2.657,4.498-5.318,8.996-7.971,13.499
		c-0.211,0.357-0.379,0.742-0.591,1.164c2.7,0.253,68.895,0.143,69.88-0.129c-0.098-0.492-0.155-1.006-0.304-1.492
		c-1.175-3.839-2.291-7.699-3.572-11.503c-1.963-5.829-4.15-11.578-7.007-17.041c-1.581-3.021-3.019-6.136-5.353-8.701
		c-0.594-0.652-1.121-1.369-1.639-2.084c-2.482-3.421-5.052-6.765-8.149-9.667c-1.144-1.071-2.263-2.171-3.449-3.193
		C54.696,184.761,52.771,183.195,50.772,181.528 M202.602,244.194c-36.524,0-72.833,0-109.142,0.003
		c-0.028,0-0.063,0.036-0.08,0.065c-0.019,0.032-0.02,0.076-0.029,0.114C127.844,269.254,174.229,265.547,202.602,244.194
		 M52.364,171.023c0.102,0.031,0.204,0.064,0.307,0.096c0.13-0.191,0.273-0.374,0.39-0.574
		c17.754-30.082,35.506-60.165,53.255-90.25c0.017-0.027,0.005-0.083-0.014-0.115c-0.018-0.032-0.06-0.05-0.189-0.148
		c-18.963,9.348-33.386,23.399-43.176,42.187C54.96,137.527,51.578,153.834,52.364,171.023 M243.091,169.786
		c0.163-0.291,0.26-0.385,0.263-0.483c0.076-1.845,0.224-3.691,0.188-5.535c-0.04-2.081-0.163-4.17-0.396-6.239
		c-0.372-3.306-0.712-6.628-1.337-9.891c-1.805-9.421-5.079-18.342-9.644-26.771c-5.489-10.136-12.542-19.044-21.188-26.689
		c-6.091-5.386-12.768-9.885-20.054-13.485c-0.27-0.132-0.559-0.224-0.838-0.335c-0.048,0.055-0.097,0.109-0.146,0.164
		C207.632,110.235,225.324,139.949,243.091,169.786 M117.701,173.083c-0.077-0.076-0.153-0.152-0.23-0.227
		c-14.719,8.785-29.438,17.571-44.298,26.441c3.507,5.287,6.167,10.895,8.681,16.626c0.344-0.112,0.584-0.151,0.784-0.263
		c15.156-8.461,30.31-16.928,45.461-25.401c0.083-0.047,0.118-0.184,0.246-0.394c-8.257,1.1-16.403,2.185-24.848,3.311
		C108.347,186.316,113.024,179.699,117.701,173.083 M156.646,136.152c0.06-0.017,0.117-0.033,0.176-0.05V85.827
		c-6.427,0.869-12.781,0.637-19.185,0.207v49.012c0.065,0.016,0.129,0.033,0.193,0.05c2.923-7.529,5.847-15.058,8.77-22.587
		c0.09,0.007,0.18,0.015,0.271,0.022C150.129,120.405,153.388,128.278,156.646,136.152 M182.97,172.101
		c-0.052,0.054-0.104,0.108-0.157,0.162c3.747,6.19,7.495,12.379,11.372,18.781c-7.134-0.678-13.999-1.33-20.863-1.982
		c-0.022,0.083-0.048,0.167-0.071,0.251c13.562,7.963,27.125,15.927,40.767,23.936c2.736-5.423,5.424-10.75,8.14-16.131
		C209.02,188.73,195.996,180.416,182.97,172.101"/>
	<path fill-rule="evenodd" clip-rule="evenodd" fill="none" d="M129.764,215.6c6.557-6.955,13.112-13.91,19.708-20.906
		c6.96,7.043,13.854,14.022,20.756,20.995c0.035,0.036,0.149-0.007,0.391-0.026c-0.028-2.69-0.397-5.374-0.541-8.064
		c-0.147-2.761-0.459-5.514-0.678-8.272c-0.216-2.712-0.406-5.427-0.617-8.265c0.298,0.106,0.554,0.156,0.765,0.28
		c4.625,2.683,9.252,5.362,13.863,8.068c9.398,5.514,18.785,11.045,28.18,16.566c1.261,0.74,1.317,0.832,0.915,2.315
		c-1.563,5.778-3.151,11.549-4.686,17.334c-0.275,1.04-0.338,2.136-0.499,3.205c-0.054,0.356-0.106,0.712-0.167,1.066
		c-0.095,0.561-0.45,0.83-0.999,0.86c-0.282,0.015-0.564,0.009-0.846,0.009c-15.945,0-31.89,0.018-47.835-0.007
		c-8.49-0.015-16.98-0.122-25.471-0.15c-13.487-0.044-26.974-0.058-40.461-0.085c-0.438-0.001-0.876,0-1.429,0
		c-2.21-7.077-4.409-14.119-6.643-21.27c15.05-8.386,30.062-16.749,45.275-25.226c0.249,7.313,0.49,14.421,0.732,21.53
		C129.572,215.571,129.667,215.586,129.764,215.6"/>
	<path fill-rule="evenodd" clip-rule="evenodd" fill="none" d="M160.596,85.55c3.673-0.929,7.297-1.83,10.911-2.765
		c4.045-1.047,8.104-2.044,12.008-3.573c1.095-0.428,1.3-0.356,1.94,0.709c1.91,3.17,3.807,6.346,5.696,9.527
		c6.883,11.582,13.749,23.173,20.644,34.748c8.934,14.995,17.892,29.976,26.829,44.968c1.605,2.693,3.164,5.413,4.773,8.171
		c-2.345,1.595-4.741,3.055-6.938,4.769c-2.243,1.752-4.395,3.653-6.396,5.677c-1.971,1.995-3.702,4.226-5.665,6.499
		c-14.079-8.971-28.222-18.007-42.531-27.148c7.308-4.654,14.508-9.133,21.61-13.845c-4.77-0.634-9.521-0.734-14.251-1.087
		c-4.757-0.355-9.526-0.536-14.523-0.806c3.432-7.98,6.788-15.784,10.249-23.835c-0.493,0.157-0.808,0.232-1.102,0.353
		c-7.316,3.029-14.629,6.065-21.944,9.095c-0.395,0.164-0.802,0.299-1.311,0.488V85.55z"/>
	<path fill-rule="evenodd" clip-rule="evenodd" fill="none" d="M70.873,196.43c-0.241-0.343-0.484-0.764-0.798-1.122
		c-2.142-2.449-4.252-4.928-6.465-7.313c-2.356-2.539-5.08-4.68-7.755-6.87c-1.084-0.887-2.132-1.817-3.254-2.775
		c19.401-32.85,38.758-65.625,58.199-98.544c7.571,2.447,15.269,4.355,23.096,5.81v51.627c-8.261-3.366-16.423-6.692-24.874-10.136
		c1.179,3.1,2.47,5.865,3.645,8.676c1.21,2.891,2.468,5.761,3.704,8.641c1.219,2.842,2.436,5.684,3.726,8.695
		c-4.543,0.789-8.985,1.598-13.439,2.326c-4.449,0.726-8.889,1.498-13.359,2.415c3.313,2.36,6.768,4.363,10.168,6.452
		c3.425,2.103,6.855,4.195,10.289,6.296C113.163,171.305,73.555,195.189,70.873,196.43"/>
	<path fill-rule="evenodd" clip-rule="evenodd" fill="none" d="M53.78,243.718c0.386-0.018,0.773-0.051,1.159-0.051
		c7.167-0.004,14.333-0.025,21.5,0.009c3.013,0.015,6.025,0.159,9.037,0.228c0.983,0.021,1.789,0.462,2.522,1.032
		c5.296,4.114,11.049,7.48,17.042,10.454c6.512,3.228,13.372,5.478,20.425,7.179c4.266,1.031,8.611,1.501,12.962,1.947
		c3.434,0.351,6.868,0.794,10.326,0.642c6.656-0.294,13.291-0.806,19.828-2.214c6.224-1.34,12.296-3.141,18.125-5.721
		c4.564-2.023,8.948-4.399,13.24-6.935c2.177-1.285,4.217-2.798,6.317-4.211c0.2-0.135,0.396-0.279,0.58-0.432
		c1.291-1.075,2.728-1.466,4.446-1.453c9.703,0.073,19.405,0.035,29.109,0.035h1.587c-6.449,7.975-13.685,14.688-21.719,20.558
		c-16.856,12.314-35.603,19.919-56.326,22.627c-23.089,3.02-45.259-0.26-66.447-9.852C80.303,269.777,65.65,258.608,53.672,244
		C53.708,243.907,53.744,243.813,53.78,243.718"/>
	<path fill-rule="evenodd" clip-rule="evenodd" fill="none" d="M32.09,205.868c-0.186-0.371-0.32-0.565-0.385-0.78
		c-2.29-7.545-4.113-15.198-5.102-23.027c-0.426-3.379-0.668-6.782-0.989-10.176c-0.411-4.336-0.345-8.685-0.126-13.019
		c0.332-6.579,1.223-13.097,2.674-19.534c2.34-10.382,6.091-20.235,11.072-29.619c4.884-9.202,10.758-17.737,17.633-25.566
		c7.531-8.577,16.135-15.915,25.82-21.962c7.669-4.79,15.804-8.611,24.343-11.586c6.272-2.185,12.671-3.88,19.18-5.178
		c0.19-0.038,0.389-0.034,0.747-0.063c-0.922,1.599-1.763,3.09-2.634,4.563c-3.663,6.197-7.337,12.388-11.003,18.582
		c-0.901,1.522-1.798,3.047-2.684,4.578c-0.611,1.056-1.549,1.654-2.627,2.195c-6.652,3.333-13.345,6.617-19.289,11.158
		c-7.836,5.985-14.928,12.735-20.646,20.819c-3.278,4.634-6.14,9.531-8.809,14.542c-3.268,6.135-5.808,12.55-7.338,19.33
		c-0.75,3.322-1.338,6.691-1.793,10.068c-0.53,3.932-0.919,7.888-1.209,11.847c-0.223,3.043-0.199,6.101,0.139,9.153
		c0.154,1.381,0.143,2.796,0.045,4.184c-0.048,0.687-0.371,1.402-0.727,2.012c-3.736,6.387-7.502,12.756-11.262,19.129
		c-1.431,2.424-2.867,4.845-4.306,7.264C32.616,205.113,32.386,205.424,32.09,205.868"/>
	<path fill-rule="evenodd" clip-rule="evenodd" fill="none" d="M169.066,45.23c2.547,0.576,4.821,1.045,7.073,1.606
		c8.444,2.105,16.653,4.897,24.534,8.602c10.029,4.715,19.268,10.649,27.607,17.977c9.535,8.378,17.488,18.06,24.096,28.878
		c4.901,8.025,8.967,16.444,11.992,25.351c2.266,6.671,3.925,13.492,4.896,20.477c0.465,3.34,0.896,6.682,0.957,10.057
		c0.068,3.736,0.273,7.48,0.117,11.207c-0.161,3.839-0.64,7.668-1.062,11.492c-0.612,5.519-1.795,10.933-3.192,16.3
		c-0.567,2.176-1.22,4.33-1.842,6.491c-0.073,0.255-0.197,0.496-0.368,0.919c-0.755-1.248-1.416-2.335-2.07-3.427
		c-4.751-7.935-9.488-15.878-14.264-23.799c-0.757-1.255-1.034-2.468-0.889-3.976c0.401-4.16,0.557-8.347,0.285-12.526
		c-0.529-8.117-1.83-16.097-4.215-23.897c-2.843-9.297-6.973-17.975-12.279-26.104c-2.291-3.512-4.978-6.716-7.792-9.812
		c-2.218-2.439-4.407-4.911-6.755-7.219c-6.034-5.931-12.821-10.847-20.368-14.692c-2.401-1.224-4.806-2.447-7.237-3.607
		c-1.323-0.631-2.283-1.546-3.025-2.814c-2.295-3.922-4.679-7.792-6.992-11.703c-2.949-4.982-5.866-9.984-8.795-14.978
		C169.379,45.865,169.298,45.685,169.066,45.23"/>
	<path fill-rule="evenodd" clip-rule="evenodd" fill="none" d="M175.389,166.96c4.021,6.63,7.979,13.153,12.075,19.908
		c-3.949-0.244-7.653-0.7-11.365-1.016c-3.698-0.316-7.389-0.71-11.236-1.085c0.555,7.487,1.097,14.809,1.637,22.131
		c-0.074,0.028-0.149,0.058-0.225,0.088c-0.157-0.145-0.331-0.275-0.472-0.436c-0.851-0.963-1.651-1.974-2.547-2.892
		c-3.149-3.226-6.332-6.417-9.496-9.629c-0.93-0.946-1.832-1.919-2.754-2.874c-0.223-0.23-0.459-0.453-0.716-0.643
		c-0.775-0.569-1.097-0.578-1.779,0.116c-2.397,2.439-4.783,4.888-7.146,7.359c-1.888,1.976-3.739,3.987-5.6,5.989
		c-0.684,0.735-1.342,1.495-2.021,2.233c-0.293,0.319-0.611,0.614-1.14,1.142c-0.123-3.81-0.239-7.319-0.346-10.828
		c-0.107-3.487-0.204-6.974-0.31-10.644c-6.962,0.869-13.759,1.844-20.797,2.736c0.686-0.995,1.24-1.821,1.816-2.63
		c3.056-4.291,6.118-8.579,9.175-12.868c0.67-0.941,0.64-1.165-0.391-1.8c-3.354-2.069-6.721-4.116-10.082-6.174
		c-2.675-1.638-5.348-3.279-8.02-4.921c-0.201-0.123-0.392-0.262-0.845-0.569c7.517-1.347,14.804-2.51,22.257-3.815
		c-0.889-2.545-2.049-4.904-3.051-7.324c-1.014-2.451-2.088-4.875-3.133-7.315c-1.036-2.418-2.069-4.839-3.224-7.54
		c7.779,3.177,15.271,6.235,22.912,9.355c2.742-7.054,5.456-14.034,8.265-21.256c3.033,7.323,5.969,14.405,8.961,21.624
		c7.432-3.079,14.794-6.131,22.158-9.182c0.063,0.055,0.13,0.111,0.194,0.167c-2.854,6.649-5.709,13.298-8.65,20.152
		c7.751,0.465,15.323,0.919,22.894,1.373c0.028,0.094,0.056,0.188,0.085,0.281C186.797,159.758,181.124,163.34,175.389,166.96"/>
	<path fill-rule="evenodd" clip-rule="evenodd" fill="none" d="M281.198,240.765h-70.576c0.253-3.793,1.344-7.327,2.321-10.885
		c1.501-5.462,2.979-10.934,5.021-16.229c2.949-7.644,6.982-14.645,12.346-20.863c3.812-4.42,8.122-8.244,13.192-11.174
		c0.452-0.261,0.919-0.497,1.384-0.734c0.137-0.071,0.292-0.106,0.534-0.19C257.318,200.668,269.205,220.626,281.198,240.765"/>
	<path fill-rule="evenodd" clip-rule="evenodd" fill="none" d="M182.787,75.481c-23.268,9.387-46.492,9.888-70.031,1.01
		c11.738-19.865,23.401-39.603,35.179-59.533C159.602,36.549,171.15,55.941,182.787,75.481"/>
	<path fill-rule="evenodd" clip-rule="evenodd" fill="none" d="M50.772,181.527c1.999,1.667,3.924,3.233,5.803,4.854
		c1.186,1.023,2.306,2.123,3.45,3.194c3.097,2.901,5.667,6.245,8.149,9.666c0.518,0.715,1.045,1.432,1.638,2.084
		c2.335,2.565,3.772,5.68,5.353,8.701c2.858,5.463,5.044,11.212,7.008,17.041c1.281,3.805,2.397,7.665,3.572,11.503
		c0.148,0.486,0.206,1,0.304,1.492c-0.985,0.273-67.18,0.383-69.88,0.13c0.212-0.423,0.379-0.807,0.591-1.165
		c2.653-4.502,5.313-9,7.971-13.499c5.541-9.379,11.082-18.758,16.622-28.137c2.882-4.88,5.763-9.761,8.646-14.64
		C50.219,182.38,50.458,182.023,50.772,181.527"/>
	<path fill-rule="evenodd" clip-rule="evenodd" fill="none" d="M202.602,244.194c-28.373,21.354-74.758,25.062-109.251,0.184
		c0.009-0.039,0.01-0.082,0.029-0.115c0.017-0.028,0.052-0.065,0.08-0.065C129.769,244.194,166.078,244.194,202.602,244.194"/>
	<path fill-rule="evenodd" clip-rule="evenodd" fill="none" d="M52.365,171.023c-0.786-17.188,2.596-33.496,10.573-48.804
		c9.79-18.788,24.213-32.839,43.176-42.187c0.128,0.098,0.171,0.116,0.189,0.148c0.018,0.032,0.03,0.088,0.014,0.116
		c-17.75,30.084-35.501,60.167-53.255,90.249c-0.117,0.2-0.26,0.384-0.391,0.574C52.568,171.088,52.466,171.054,52.365,171.023"/>
	<path fill-rule="evenodd" clip-rule="evenodd" fill="none" d="M243.091,169.786c-17.768-29.837-35.459-59.551-53.152-89.264
		c0.049-0.055,0.098-0.109,0.146-0.164c0.279,0.111,0.568,0.203,0.838,0.335c7.286,3.601,13.963,8.099,20.054,13.485
		c8.646,7.645,15.699,16.553,21.188,26.689c4.564,8.429,7.839,17.35,9.644,26.771c0.625,3.263,0.965,6.585,1.337,9.891
		c0.233,2.069,0.356,4.158,0.396,6.239c0.036,1.844-0.111,3.69-0.188,5.535C243.351,169.4,243.254,169.496,243.091,169.786"/>
	<path fill-rule="evenodd" clip-rule="evenodd" fill="none" d="M117.701,173.083c-4.677,6.616-9.354,13.233-14.204,20.093
		c8.445-1.125,16.591-2.21,24.848-3.31c-0.128,0.21-0.162,0.347-0.246,0.394c-15.151,8.473-30.305,16.94-45.461,25.4
		c-0.2,0.112-0.44,0.151-0.784,0.264c-2.514-5.731-5.174-11.341-8.681-16.626c14.86-8.87,29.579-17.656,44.299-26.442
		C117.548,172.931,117.625,173.007,117.701,173.083"/>
	<path fill-rule="evenodd" clip-rule="evenodd" fill="none" d="M156.647,136.152c-3.259-7.874-6.518-15.747-9.776-23.621
		c-0.09-0.008-0.18-0.015-0.27-0.022c-2.925,7.529-5.848,15.058-8.771,22.587c-0.062-0.017-0.128-0.034-0.192-0.05V86.034
		c6.402,0.43,12.758,0.662,19.185-0.208v50.276C156.763,136.119,156.706,136.135,156.647,136.152"/>
	<path fill-rule="evenodd" clip-rule="evenodd" fill="none" d="M182.97,172.101c13.025,8.315,26.05,16.63,39.187,25.017
		c-2.716,5.381-5.403,10.708-8.14,16.131c-13.642-8.009-27.205-15.973-40.767-23.936c0.023-0.084,0.049-0.168,0.071-0.251
		c6.864,0.652,13.729,1.304,20.863,1.982c-3.877-6.402-7.625-12.591-11.372-18.781C182.866,172.208,182.918,172.155,182.97,172.101"
		/>
	<polygon points="77.009,374.587 98.567,374.587 98.567,378.941 71.827,378.941 71.827,329.192 77.009,329.192 	"/>
	<path d="M137.056,329.192v36.689c0,9.396-7.048,14.026-13.75,14.026c-5.389,0-13.819-3.04-13.819-16.79v-33.926h5.182v36.689
		c0,7.187,4.629,9.673,8.637,9.673c6.356,0,8.567-4.698,8.567-10.295v-36.067H137.056z"/>
	<path d="M182.456,378.94h-5.598l-4.422-14.648h-15.131l-4.422,14.648h-5.598l17.551-53.895L182.456,378.94z M158.548,359.939
		h12.645l-6.356-20.107L158.548,359.939z"/>
	<path d="M194.549,329.192h12.922c12.438,0,13.543,11.192,13.543,14.095c0,5.113-1.935,9.812-8.845,13.75l13.405,21.903h-6.288
		l-12.093-20.729c-2.486,0.069-4.974,0.069-7.462,0.139v20.59h-5.183V329.192z M204.638,353.928c7.048,0,11.194-3.594,11.194-10.919
		c0-6.632-2.766-9.466-10.986-9.466h-5.114v20.385H204.638z"/>
</g>
</svg>
