<?xml version="1.0" encoding="utf-8"?>
<!-- Generator: Adobe Illustrator 16.0.0, SVG Export Plug-In . SVG Version: 6.00 Build 0)  -->
<!DOCTYPE svg PUBLIC "-//W3C//DTD SVG 1.1//EN" "http://www.w3.org/Graphics/SVG/1.1/DTD/svg11.dtd">
<svg version="1.1" id="Layer_1" xmlns="http://www.w3.org/2000/svg" xmlns:xlink="http://www.w3.org/1999/xlink" x="0px" y="0px"
	 width="400px" height="400px" viewBox="0 0 400 400" enable-background="new 0 0 400 400" xml:space="preserve">
<rect x="-111" fill-rule="evenodd" clip-rule="evenodd" fill="none" width="639.5" height="436.5"/>
<g>
	<path fill-rule="evenodd" clip-rule="evenodd" fill="#FFFFFF" d="M199.277,22.454c0.839,1.395,1.615,2.667,2.374,3.949
		c3.026,5.119,6.046,10.242,9.071,15.362c4.611,7.805,9.217,15.614,13.838,23.413c2.055,3.467,4.152,6.909,6.205,10.376
		c0.324,0.547,0.715,0.83,1.342,0.98c6.75,1.611,13.27,3.899,19.586,6.764c11.014,4.994,21.25,11.218,30.342,19.247
		c3.361,2.967,6.758,5.895,9.889,9.111c3.994,4.105,7.635,8.506,10.992,13.145c3.492,4.824,6.67,9.85,9.469,15.106
		c2.904,5.455,5.408,11.093,7.479,16.92c1.852,5.207,3.371,10.51,4.557,15.908c0.785,3.583,1.361,7.2,1.703,10.854
		c0.295,3.16,0.705,6.316,0.877,9.484c0.188,3.498,0.256,7.012,0.205,10.514c-0.037,2.72-0.236,5.445-0.541,8.148
		c-0.389,3.446-0.891,6.881-1.459,10.303c-0.496,2.974-1.143,5.924-1.748,8.881c-0.086,0.418-0.002,0.742,0.182,1.106
		c2.57,5.112,5.143,10.224,7.684,15.351c2.957,5.97,5.889,11.955,8.822,17.936c2.061,4.202,4.111,8.408,6.162,12.613
		c1.752,3.594,3.496,7.189,5.242,10.785c0.07,0.142,0.123,0.291,0.221,0.528c-0.307,0.034-0.545,0.082-0.783,0.082
		c-12.754-0.018-25.508-0.028-38.262-0.065c-6.992-0.02-13.984-0.075-20.975-0.137c-0.635-0.007-1.084,0.178-1.533,0.633
		c-4.549,4.607-9.344,8.935-14.578,12.763c-4.807,3.517-9.801,6.733-15.029,9.591c-5.857,3.202-11.941,5.895-18.217,8.154
		c-5.689,2.049-11.518,3.615-17.459,4.764c-4.236,0.818-8.498,1.469-12.791,1.898c-1.516,0.152-3.043,0.191-4.564,0.281
		c-2.008,0.119-4.014,0.317-6.021,0.338c-2.726,0.027-5.457-0.015-8.179-0.152c-2.426-0.123-4.843-0.422-7.265-0.633
		c-8.274-0.723-16.366-2.344-24.288-4.85c-5.148-1.628-10.201-3.492-15.113-5.732c-6.758-3.082-13.195-6.734-19.318-10.942
		c-3.672-2.522-7.258-5.157-10.587-8.125c-1.576-1.403-3.12-2.844-4.654-4.294c-1.324-1.25-2.622-2.527-3.912-3.812
		c-0.323-0.32-0.651-0.508-1.113-0.461c-0.258,0.027-0.52,0.006-0.781,0.006H45.629H44.23c0.285-0.566,0.484-0.996,0.714-1.41
		c4.901-8.834,9.828-17.654,14.702-26.504c4.828-8.766,9.718-17.496,14.918-26.049c0.388-0.639,0.729-1.309,1.148-1.926
		c0.361-0.529,0.403-1.025,0.226-1.642c-0.885-3.089-1.725-6.192-2.229-9.372c-0.239-1.504-0.441-3.016-0.617-4.527
		c-0.297-2.544-0.594-5.088-0.826-7.638c-0.143-1.581-0.189-3.173-0.236-4.763c-0.066-2.174-0.167-4.353-0.119-6.525
		c0.075-3.37,0.251-6.736,0.672-10.088c0.242-1.93,0.397-3.869,0.616-5.801c0.594-5.234,1.659-10.375,3.039-15.458
		c1.91-7.036,4.376-13.873,7.386-20.51c2.029-4.474,4.378-8.781,7.062-12.902c3.265-5.013,6.59-9.988,10.364-14.635
		c2.004-2.468,4.121-4.852,6.3-7.168c3.944-4.193,8.231-8.023,12.738-11.605c6.097-4.846,12.576-9.108,19.451-12.772
		c6.35-3.384,12.905-6.299,19.76-8.499c2.687-0.862,5.425-1.568,8.151-2.304c0.523-0.141,0.828-0.409,1.088-0.855
		c3.741-6.432,7.519-12.843,11.239-19.287c6.4-11.086,12.766-22.192,19.146-33.289C199.004,22.877,199.094,22.746,199.277,22.454
		 M199.439,46.173c-0.242,0.379-0.406,0.613-0.549,0.86c-2.786,4.844-5.545,9.703-8.358,14.531
		c-4.727,8.113-9.495,16.203-14.222,24.316c-0.393,0.674-0.874,1.015-1.635,1.167c-3.566,0.712-7.095,1.585-10.564,2.685
		c-10.228,3.242-19.767,7.931-28.687,13.869c-7.079,4.713-13.571,10.144-19.472,16.283c-2.753,2.863-5.351,5.854-7.663,9.076
		c-2.556,3.565-5.031,7.19-7.474,10.835c-2.428,3.622-4.475,7.464-6.286,11.432c-2.785,6.1-5.029,12.395-6.795,18.86
		c-1.044,3.822-1.901,7.688-2.412,11.622c-0.313,2.408-0.495,4.836-0.815,7.244c-0.463,3.479-0.591,6.978-0.681,10.478
		c-0.037,1.458,0.063,2.92,0.119,4.379c0.063,1.62,0.091,3.246,0.237,4.86c0.227,2.517,0.523,5.029,0.825,7.537
		c0.31,2.578,0.694,5.146,1.365,7.658c0.762,2.854,1.529,5.707,2.368,8.539c0.243,0.819,0.176,1.465-0.282,2.172
		c-0.724,1.116-1.367,2.285-2.046,3.432c-2.832,4.781-5.742,9.517-8.48,14.35c-4.451,7.857-8.789,15.779-13.169,23.678
		c-0.084,0.15-0.102,0.338-0.174,0.59h1.247c15.098,0,30.196,0.01,45.294-0.021c1.174-0.002,2.182,0.096,2.829,1.21
		c0.095,0.163,0.27,0.28,0.408,0.418c2.154,2.123,4.292,4.265,6.469,6.363c1.332,1.284,2.698,2.536,4.093,3.752
		c4.028,3.509,8.383,6.575,12.883,9.442c5.412,3.446,11.076,6.406,16.997,8.881c5.253,2.193,10.642,3.98,16.146,5.425
		c4.306,1.13,8.668,1.956,13.099,2.407c1.902,0.195,3.799,0.437,5.704,0.598c2.615,0.221,5.235,0.52,7.854,0.539
		c2.981,0.023,5.966-0.206,8.946-0.36c1.844-0.095,3.697-0.167,5.525-0.403c3.375-0.437,6.748-0.904,10.098-1.504
		c5.504-0.986,10.885-2.461,16.154-4.352c4.623-1.66,9.129-3.59,13.514-5.795c3.746-1.883,7.377-3.979,10.883-6.285
		c3.775-2.484,7.461-5.096,10.883-8.057c1.865-1.613,3.699-3.266,5.516-4.936c1.172-1.078,2.307-2.199,3.426-3.332
		c0.912-0.925,1.789-1.885,2.658-2.852c0.395-0.439,0.811-0.684,1.434-0.631c0.873,0.072,1.754,0.07,2.631,0.074
		c10.734,0.049,21.467,0.094,32.201,0.131c3.447,0.013,6.898,0.004,10.348,0c0.24,0,0.482-0.034,0.799-0.057
		c-0.121-0.305-0.191-0.515-0.289-0.713c-2.107-4.322-4.209-8.648-6.332-12.964c-1.908-3.879-3.826-7.754-5.768-11.616
		c-3.107-6.186-6.234-12.359-9.369-18.531c-0.227-0.444-0.248-0.826-0.1-1.297c0.332-1.052,0.633-2.115,0.881-3.19
		c1.17-5.06,2.072-10.167,2.766-15.313c0.582-4.314,0.998-8.645,0.93-12.992c-0.057-3.597-0.334-7.191-0.602-10.781
		c-0.195-2.648-0.477-5.295-0.818-7.93c-0.557-4.285-1.508-8.494-2.652-12.66c-1.793-6.531-4.117-12.864-7.021-18.981
		c-3.215-6.772-7.074-13.163-11.516-19.203c-2.871-3.904-5.969-7.618-9.348-11.094c-2.879-2.962-5.992-5.672-9.102-8.381
		c-3.139-2.733-6.391-5.32-9.842-7.654c-5.371-3.633-11.041-6.733-16.916-9.456c-4.307-1.996-8.711-3.762-13.289-5.027
		c-3.281-0.907-6.605-1.665-9.918-2.457c-0.449-0.107-0.781-0.257-0.986-0.675c-0.098-0.204-0.232-0.391-0.35-0.586
		c-3.535-5.913-7.082-11.82-10.604-17.741c-3.057-5.138-6.084-10.293-9.129-15.439C202.016,50.503,200.77,48.413,199.439,46.173"/>
	<path fill-rule="evenodd" clip-rule="evenodd" fill="none" d="M199.438,46.173c1.33,2.239,2.577,4.33,3.815,6.426
		c3.045,5.146,6.072,10.301,9.129,15.439c3.521,5.921,7.068,11.828,10.605,17.741c0.115,0.195,0.25,0.382,0.348,0.586
		c0.203,0.418,0.535,0.568,0.986,0.676c3.312,0.791,6.637,1.549,9.918,2.456c4.578,1.265,8.982,3.031,13.289,5.027
		c5.875,2.723,11.545,5.823,16.916,9.456c3.451,2.334,6.703,4.921,9.84,7.654c3.113,2.709,6.225,5.419,9.104,8.381
		c3.379,3.476,6.477,7.19,9.348,11.094c4.441,6.04,8.299,12.431,11.516,19.204c2.904,6.116,5.229,12.45,7.021,18.98
		c1.143,4.166,2.094,8.375,2.652,12.66c0.344,2.635,0.623,5.281,0.818,7.93c0.266,3.59,0.545,7.185,0.6,10.781
		c0.068,4.348-0.348,8.678-0.928,12.992c-0.695,5.146-1.596,10.254-2.764,15.313c-0.248,1.075-0.551,2.139-0.883,3.19
		c-0.148,0.471-0.127,0.853,0.098,1.297c3.135,6.172,6.264,12.346,9.373,18.531c1.941,3.862,3.857,7.737,5.766,11.616
		c2.123,4.315,4.225,8.642,6.332,12.964c0.098,0.198,0.166,0.408,0.289,0.713c-0.316,0.022-0.559,0.057-0.801,0.057
		c-3.449,0.004-6.898,0.013-10.346,0c-10.734-0.037-21.469-0.082-32.199-0.131c-0.879-0.004-1.758-0.002-2.633-0.074
		c-0.623-0.053-1.039,0.191-1.434,0.631c-0.869,0.967-1.746,1.927-2.658,2.852c-1.119,1.133-2.254,2.254-3.426,3.332
		c-1.816,1.67-3.648,3.322-5.516,4.936c-3.422,2.961-7.107,5.572-10.883,8.057c-3.506,2.307-7.137,4.402-10.883,6.285
		c-4.385,2.205-8.893,4.135-13.514,5.795c-5.268,1.891-10.65,3.365-16.154,4.352c-3.35,0.6-6.723,1.067-10.098,1.504
		c-1.83,0.236-3.682,0.309-5.525,0.404c-2.98,0.154-5.966,0.383-8.946,0.359c-2.62-0.02-5.239-0.318-7.854-0.539
		c-1.905-0.161-3.803-0.402-5.705-0.598c-4.431-0.45-8.793-1.277-13.098-2.406c-5.505-1.445-10.894-3.232-16.147-5.426
		c-5.92-2.475-11.585-5.435-16.996-8.881c-4.501-2.867-8.856-5.934-12.883-9.442c-1.395-1.216-2.762-2.468-4.094-3.752
		c-2.176-2.099-4.314-4.24-6.468-6.363c-0.139-0.138-0.313-0.255-0.408-0.418c-0.648-1.114-1.655-1.212-2.83-1.21
		c-15.098,0.031-30.196,0.021-45.294,0.021h-1.247c0.072-0.252,0.091-0.439,0.175-0.59c4.38-7.898,8.718-15.82,13.168-23.678
		c2.738-4.833,5.648-9.568,8.481-14.35c0.679-1.146,1.322-2.315,2.046-3.432c0.458-0.707,0.525-1.353,0.282-2.172
		c-0.839-2.832-1.607-5.686-2.369-8.539c-0.671-2.513-1.054-5.08-1.364-7.658c-0.303-2.508-0.598-5.021-0.826-7.537
		c-0.146-1.614-0.173-3.239-0.236-4.86c-0.057-1.459-0.156-2.921-0.119-4.379c0.089-3.5,0.218-6.998,0.68-10.478
		c0.32-2.408,0.502-4.836,0.815-7.244c0.512-3.934,1.368-7.799,2.412-11.622c1.766-6.465,4.01-12.76,6.795-18.86
		c1.812-3.968,3.858-7.81,6.287-11.432c2.442-3.645,4.918-7.27,7.474-10.835c2.311-3.223,4.91-6.213,7.662-9.076
		c5.902-6.139,12.393-11.569,19.473-16.283c8.919-5.938,18.458-10.627,28.687-13.869c3.468-1.1,6.997-1.973,10.564-2.685
		c0.76-0.152,1.242-0.493,1.634-1.167c4.727-8.113,9.495-16.203,14.223-24.316c2.813-4.828,5.572-9.687,8.358-14.531
		C199.033,46.787,199.197,46.553,199.438,46.173 M313.828,264.129c-0.299-0.603-0.482-1.047-0.727-1.455
		c-1.305-2.174-2.646-4.324-3.936-6.508c-3.814-6.463-7.598-12.945-11.434-19.396c-0.578-0.971-0.723-1.854-0.361-2.934
		c0.773-2.309,1.584-4.618,2.123-6.985c0.832-3.667,1.549-7.366,2.131-11.081c0.523-3.357,0.91-6.747,1.154-10.137
		c0.215-2.977,0.201-5.971-0.082-8.959c-0.295-3.096-0.533-6.198-0.791-9.299c-0.301-3.596-0.943-7.133-1.797-10.637
		c-1.865-7.637-4.523-14.978-8.076-21.994c-2.176-4.3-4.662-8.413-7.41-12.368c-3.137-4.519-6.582-8.794-10.502-12.657
		c-2.125-2.096-4.375-4.07-6.615-6.045c-2.852-2.514-5.785-4.927-8.93-7.077c-4.924-3.366-10.139-6.213-15.551-8.703
		c-5.623-2.589-11.447-4.588-17.512-5.868c-2.73-0.577-5.455-1.183-8.189-1.74c-0.797-0.163-1.387-0.481-1.654-1.299
		c-0.109-0.334-0.318-0.638-0.502-0.944c-4.344-7.247-8.691-14.493-13.038-21.738c-0.312-0.518-0.632-1.032-1.003-1.638
		c-0.2,0.313-0.342,0.519-0.469,0.734c-4.58,7.748-9.174,15.487-13.715,23.259c-0.568,0.973-1.294,1.434-2.348,1.651
		c-3.082,0.635-6.164,1.281-9.225,2.009c-10.673,2.538-20.476,7.085-29.667,13.001c-4.433,2.853-8.594,6.071-12.526,9.589
		c-3.176,2.842-6.206,5.822-8.964,9.075c-2.695,3.177-5.092,6.576-7.431,10.016c-2.376,3.495-4.698,7.024-6.601,10.81
		c-2.266,4.509-4.121,9.183-5.711,13.968c-1.537,4.629-2.819,9.322-3.546,14.151c-0.352,2.338-0.637,4.687-0.897,7.037
		c-0.238,2.157-0.471,4.321-0.575,6.487c-0.109,2.272-0.074,4.551-0.08,6.828c-0.003,1.039-0.01,2.086,0.085,3.118
		c0.212,2.29,0.519,4.572,0.73,6.862c0.353,3.822,1.029,7.578,2.11,11.266c1.032,3.52,2,7.059,3.019,10.582
		c0.212,0.729,0.202,1.377-0.199,2.051c-2.795,4.689-5.573,9.387-8.348,14.09c-2.148,3.637-4.284,7.281-6.419,10.926
		c-0.223,0.38-0.406,0.783-0.671,1.301h1.227h28.211c0.261,0,0.521-0.002,0.781,0.001c0.72,0.009,1.312,0.244,1.766,0.849
		c0.565,0.752,1.193,1.457,1.781,2.193c2.466,3.082,5.392,5.719,8.205,8.463c1.278,1.248,2.574,2.484,3.935,3.639
		c5.597,4.748,11.688,8.776,18.161,12.223c5.753,3.062,11.783,5.464,18.018,7.35c4.105,1.241,8.255,2.301,12.517,2.848
		c2.249,0.287,4.504,0.545,6.759,0.785c3.801,0.404,7.594,0.922,11.439,0.582c2.229-0.195,4.465-0.305,6.699-0.392
		c2.99-0.118,5.939-0.538,8.885-1.019c4.939-0.807,9.811-1.899,14.57-3.465c5.783-1.904,11.369-4.272,16.732-7.158
		c5.221-2.811,10.186-6.021,14.805-9.735c2.199-1.769,4.312-3.653,6.365-5.593c2.289-2.163,4.494-4.422,6.678-6.692
		c1.012-1.051,1.891-2.228,2.822-3.353c0.586-0.705,1.236-1.137,2.248-1.094c2.529,0.112,5.064,0.125,7.598,0.15
		c3.385,0.035,6.768,0.057,10.15,0.066c4.164,0.011,8.33,0.002,12.494,0.002H313.828z"/>
	<path fill-rule="evenodd" clip-rule="evenodd" fill="#FFFFFF" d="M313.828,264.129h-1.303c-4.164,0-8.33,0.008-12.494-0.003
		c-3.385-0.009-6.768-0.03-10.148-0.065c-2.535-0.026-5.07-0.037-7.6-0.149c-1.012-0.045-1.662,0.388-2.246,1.093
		c-0.934,1.125-1.812,2.301-2.822,3.352c-2.186,2.271-4.391,4.531-6.68,6.693c-2.053,1.939-4.166,3.824-6.365,5.592
		c-4.619,3.715-9.584,6.926-14.805,9.735c-5.363,2.888-10.947,5.255-16.732,7.159c-4.758,1.566-9.631,2.658-14.57,3.465
		c-2.945,0.48-5.895,0.9-8.885,1.02c-2.234,0.086-4.471,0.194-6.699,0.391c-3.844,0.34-7.637-0.178-11.439-0.582
		c-2.255-0.24-4.509-0.498-6.759-0.785c-4.262-0.547-8.412-1.607-12.517-2.848c-6.234-1.887-12.264-4.287-18.017-7.35
		c-6.474-3.447-12.565-7.474-18.161-12.224c-1.361-1.153-2.657-2.39-3.935-3.638c-2.813-2.744-5.74-5.381-8.206-8.463
		c-0.588-0.735-1.215-1.441-1.781-2.193c-0.454-0.604-1.045-0.84-1.765-0.848c-0.261-0.004-0.521-0.002-0.781-0.002H90.905h-1.227
		c0.265-0.518,0.448-0.922,0.671-1.301c2.135-3.645,4.272-7.289,6.419-10.927c2.775-4.7,5.554-9.399,8.348-14.089
		c0.402-0.675,0.411-1.322,0.2-2.051c-1.019-3.524-1.988-7.062-3.02-10.584c-1.081-3.686-1.757-7.441-2.109-11.264
		c-0.212-2.291-0.519-4.572-0.73-6.861c-0.096-1.034-0.089-2.079-0.086-3.119c0.006-2.277-0.029-4.557,0.081-6.828
		c0.104-2.167,0.337-4.33,0.574-6.486c0.26-2.352,0.545-4.701,0.897-7.039c0.727-4.828,2.009-9.521,3.547-14.15
		c1.589-4.785,3.444-9.459,5.71-13.967c1.903-3.786,4.225-7.315,6.601-10.81c2.339-3.441,4.737-6.839,7.431-10.017
		c2.758-3.253,5.788-6.233,8.965-9.075c3.932-3.518,8.092-6.735,12.525-9.588c9.192-5.916,18.995-10.463,29.667-13.002
		c3.062-0.727,6.143-1.374,9.226-2.008c1.054-0.217,1.779-0.678,2.348-1.652c4.54-7.771,9.135-15.511,13.715-23.259
		c0.127-0.214,0.268-0.42,0.469-0.733c0.371,0.606,0.691,1.119,1.002,1.638c4.348,7.245,8.695,14.49,13.039,21.737
		c0.184,0.306,0.393,0.611,0.502,0.945c0.268,0.817,0.859,1.136,1.654,1.298c2.734,0.558,5.459,1.163,8.189,1.74
		c6.064,1.281,11.889,3.28,17.512,5.868c5.412,2.491,10.627,5.338,15.551,8.704c3.145,2.149,6.078,4.563,8.93,7.076
		c2.24,1.976,4.49,3.95,6.615,6.045c3.922,3.863,7.365,8.139,10.504,12.657c2.748,3.955,5.232,8.069,7.41,12.368
		c3.551,7.016,6.209,14.358,8.072,21.993c0.855,3.505,1.496,7.042,1.799,10.638c0.26,3.102,0.496,6.203,0.791,9.301
		c0.283,2.985,0.297,5.98,0.084,8.957c-0.246,3.389-0.633,6.778-1.156,10.137c-0.582,3.715-1.299,7.414-2.131,11.08
		c-0.539,2.367-1.352,4.678-2.123,6.986c-0.361,1.081-0.217,1.963,0.361,2.934c3.834,6.451,7.617,12.935,11.434,19.397
		c1.289,2.183,2.631,4.334,3.936,6.507C313.346,263.082,313.531,263.527,313.828,264.129 M186.453,240.801
		c-0.078-0.012-0.155-0.023-0.233-0.035c-0.195-5.744-0.389-11.486-0.59-17.396c-12.294,6.85-24.424,13.607-36.585,20.384
		c1.805,5.778,3.582,11.468,5.368,17.187c0.446,0,0.8,0,1.155,0c10.898,0.021,21.797,0.033,32.695,0.068
		c6.86,0.023,13.72,0.11,20.582,0.121c12.885,0.021,25.77,0.006,38.652,0.006c0.229,0,0.457,0.006,0.684-0.007
		c0.443-0.024,0.73-0.241,0.809-0.694c0.049-0.287,0.09-0.574,0.133-0.861c0.131-0.865,0.182-1.75,0.402-2.59
		c1.24-4.676,2.523-9.338,3.787-14.008c0.326-1.199,0.279-1.272-0.738-1.871c-7.592-4.461-15.178-8.93-22.771-13.387
		c-3.725-2.186-7.465-4.351-11.201-6.519c-0.172-0.101-0.377-0.142-0.619-0.226c0.172,2.293,0.324,4.486,0.5,6.678
		c0.176,2.229,0.428,4.453,0.547,6.685c0.115,2.175,0.414,4.343,0.438,6.517c-0.195,0.016-0.287,0.049-0.316,0.021
		c-5.576-5.634-11.146-11.274-16.771-16.965C197.048,229.561,191.75,235.18,186.453,240.801 M211.367,135.714v41.973
		c0.41-0.151,0.738-0.26,1.059-0.394c5.91-2.449,11.82-4.901,17.73-7.349c0.238-0.098,0.492-0.159,0.891-0.286
		c-2.797,6.506-5.508,12.812-8.281,19.261c4.037,0.219,7.893,0.364,11.736,0.651c3.822,0.284,7.66,0.364,11.514,0.878
		c-5.738,3.807-11.557,7.426-17.461,11.188c11.562,7.387,22.99,14.688,34.367,21.937c1.586-1.837,2.984-3.64,4.578-5.251
		c1.617-1.637,3.354-3.172,5.168-4.588c1.775-1.385,3.711-2.564,5.605-3.854c-1.301-2.229-2.559-4.427-3.855-6.604
		c-7.223-12.113-14.461-24.219-21.68-36.335c-5.572-9.353-11.119-18.719-16.682-28.078c-1.527-2.57-3.059-5.137-4.602-7.698
		c-0.52-0.86-0.686-0.919-1.57-0.573c-3.154,1.235-6.434,2.041-9.701,2.887C217.262,134.236,214.334,134.963,211.367,135.714
		 M138.865,225.311c2.167-1.004,34.172-20.301,34.652-20.865c-2.775-1.697-5.547-3.389-8.314-5.088
		c-2.747-1.688-5.539-3.307-8.217-5.213c3.612-0.742,7.2-1.365,10.795-1.953c3.6-0.588,7.189-1.24,10.86-1.879
		c-1.043-2.433-2.026-4.729-3.011-7.025c-0.999-2.327-2.016-4.646-2.993-6.982c-0.95-2.271-1.993-4.505-2.946-7.011
		c6.829,2.783,13.425,5.471,20.1,8.19v-41.716c-6.325-1.177-12.545-2.718-18.663-4.695c-15.709,26.6-31.35,53.084-47.027,79.628
		c0.906,0.773,1.753,1.525,2.629,2.242c2.161,1.77,4.363,3.5,6.267,5.552c1.788,1.927,3.492,3.931,5.224,5.909
		C138.475,224.693,138.67,225.034,138.865,225.311 M125.053,263.521c-0.029,0.076-0.058,0.152-0.087,0.229
		c9.679,11.803,21.519,20.828,35.411,27.118c17.121,7.751,35.036,10.399,53.693,7.961c16.744-2.188,31.893-8.334,45.514-18.285
		c6.492-4.741,12.338-10.167,17.551-16.61h-1.283c-7.842,0-15.682,0.031-23.521-0.028c-1.389-0.011-2.549,0.305-3.592,1.173
		c-0.15,0.125-0.309,0.24-0.471,0.35c-1.697,1.143-3.346,2.364-5.104,3.403c-3.469,2.048-7.01,3.968-10.699,5.603
		c-4.711,2.086-9.617,3.541-14.646,4.623c-5.281,1.137-10.645,1.551-16.021,1.789c-2.795,0.123-5.569-0.234-8.344-0.519
		c-3.516-0.36-7.027-0.74-10.473-1.573c-5.7-1.375-11.243-3.193-16.505-5.802c-4.843-2.401-9.492-5.122-13.771-8.447
		c-0.592-0.461-1.243-0.815-2.037-0.834c-2.435-0.055-4.869-0.172-7.303-0.183c-5.791-0.029-11.582-0.012-17.373-0.008
		C125.678,263.48,125.365,263.508,125.053,263.521 M107.527,232.936c0.239-0.356,0.425-0.608,0.584-0.877
		c1.163-1.955,2.324-3.91,3.48-5.869c3.038-5.15,6.082-10.297,9.1-15.457c0.288-0.493,0.549-1.071,0.588-1.627
		c0.079-1.121,0.088-2.264-0.036-3.381c-0.274-2.465-0.293-4.937-0.113-7.396c0.235-3.198,0.549-6.396,0.977-9.573
		c0.368-2.729,0.843-5.451,1.449-8.135c1.236-5.479,3.289-10.662,5.929-15.62c2.157-4.049,4.469-8.006,7.118-11.75
		c4.621-6.532,10.352-11.987,16.683-16.823c4.804-3.67,10.212-6.323,15.587-9.016c0.871-0.437,1.629-0.92,2.123-1.774
		c0.716-1.237,1.44-2.469,2.168-3.699c2.963-5.005,5.931-10.008,8.891-15.015c0.704-1.19,1.384-2.395,2.129-3.688
		c-0.29,0.023-0.45,0.02-0.604,0.05c-5.26,1.049-10.43,2.419-15.498,4.185c-6.901,2.403-13.473,5.491-19.671,9.361
		c-7.826,4.887-14.778,10.816-20.864,17.747c-5.554,6.326-10.302,13.223-14.248,20.658c-4.024,7.584-7.056,15.545-8.947,23.934
		c-1.172,5.202-1.892,10.469-2.16,15.784c-0.177,3.502-0.23,7.017,0.102,10.521c0.259,2.742,0.454,5.492,0.799,8.223
		c0.799,6.326,2.272,12.51,4.122,18.607C107.269,232.48,107.376,232.637,107.527,232.936 M218.209,103.134
		c0.189,0.367,0.254,0.512,0.334,0.649c2.367,4.035,4.725,8.077,7.107,12.103c1.869,3.16,3.797,6.287,5.65,9.456
		c0.6,1.025,1.375,1.764,2.445,2.274c1.965,0.937,3.906,1.926,5.848,2.914c6.098,3.108,11.582,7.08,16.457,11.872
		c1.898,1.866,3.668,3.863,5.459,5.834c2.275,2.502,4.445,5.091,6.297,7.928c4.287,6.569,7.625,13.581,9.922,21.094
		c1.928,6.303,2.979,12.75,3.404,19.309c0.221,3.379,0.096,6.762-0.229,10.123c-0.117,1.219,0.105,2.199,0.719,3.213
		c3.857,6.4,7.686,12.818,11.525,19.23c0.527,0.883,1.062,1.76,1.672,2.77c0.139-0.342,0.238-0.536,0.299-0.743
		c0.502-1.746,1.029-3.487,1.486-5.245c1.131-4.336,2.086-8.711,2.58-13.171c0.342-3.091,0.729-6.185,0.857-9.286
		c0.127-3.012-0.039-6.036-0.094-9.055c-0.051-2.729-0.398-5.428-0.773-8.127c-0.785-5.646-2.125-11.156-3.957-16.547
		c-2.445-7.197-5.729-14-9.689-20.484c-5.34-8.742-11.768-16.565-19.471-23.335c-6.738-5.922-14.205-10.717-22.309-14.527
		c-6.367-2.993-13-5.25-19.824-6.95C222.105,103.978,220.268,103.599,218.209,103.134 M223.32,201.497
		c4.633-2.925,9.217-5.819,13.803-8.715c-0.023-0.076-0.045-0.152-0.068-0.228c-6.117-0.367-12.236-0.734-18.5-1.109
		c2.377-5.538,4.684-10.911,6.99-16.284c-0.051-0.045-0.105-0.09-0.156-0.136c-5.951,2.466-11.9,4.932-17.906,7.421
		c-2.418-5.834-4.787-11.556-7.24-17.474c-2.269,5.836-4.462,11.476-6.678,17.176c-6.174-2.521-12.228-4.992-18.514-7.559
		c0.934,2.182,1.768,4.139,2.606,6.092c0.844,1.971,1.712,3.931,2.531,5.912c0.81,1.955,1.747,3.86,2.466,5.918
		c-6.023,1.053-11.911,1.993-17.985,3.082c0.366,0.248,0.52,0.36,0.682,0.459c2.16,1.327,4.32,2.653,6.481,3.978
		c2.716,1.661,5.437,3.315,8.147,4.987c0.833,0.515,0.858,0.695,0.316,1.455c-2.471,3.467-4.945,6.93-7.414,10.398
		c-0.465,0.654-0.913,1.32-1.467,2.125c5.687-0.721,11.179-1.508,16.805-2.211c0.085,2.966,0.164,5.783,0.25,8.602
		c0.086,2.836,0.181,5.672,0.28,8.748c0.426-0.425,0.683-0.664,0.92-0.92c0.549-0.598,1.081-1.212,1.633-1.806
		c1.503-1.618,2.999-3.243,4.525-4.841c1.909-1.996,3.838-3.975,5.774-5.945c0.552-0.561,0.812-0.555,1.438-0.094
		c0.207,0.152,0.398,0.334,0.578,0.52c0.746,0.771,1.475,1.557,2.225,2.322c2.557,2.596,5.129,5.173,7.674,7.779
		c0.725,0.742,1.371,1.56,2.059,2.339c0.113,0.128,0.254,0.233,0.381,0.351c0.061-0.023,0.121-0.048,0.182-0.072
		c-0.438-5.916-0.875-11.832-1.322-17.881c3.107,0.303,6.092,0.621,9.078,0.875c3,0.256,5.992,0.625,9.186,0.822
		C229.766,212.125,226.568,206.855,223.32,201.497 M308.816,261.135c-9.689-16.273-19.295-32.4-28.908-48.543
		c-0.195,0.069-0.32,0.098-0.432,0.154c-0.377,0.191-0.754,0.382-1.119,0.594c-4.096,2.366-7.578,5.457-10.658,9.028
		c-4.334,5.024-7.594,10.683-9.977,16.858c-1.65,4.278-2.846,8.699-4.059,13.113c-0.789,2.875-1.67,5.73-1.875,8.795H308.816z
		 M229.297,127.578c-9.404-15.79-18.734-31.459-28.162-47.29c-9.517,16.105-18.941,32.054-28.426,48.105
		C191.729,135.568,210.496,135.162,229.297,127.578 M122.624,213.268c-0.254,0.401-0.448,0.69-0.624,0.99
		c-2.331,3.942-4.658,7.887-6.987,11.829c-4.477,7.579-8.954,15.158-13.431,22.736c-2.148,3.635-4.298,7.271-6.442,10.907
		c-0.17,0.289-0.306,0.601-0.477,0.941c2.182,0.204,55.671,0.116,56.466-0.104c-0.079-0.398-0.125-0.814-0.245-1.207
		c-0.95-3.102-1.852-6.221-2.887-9.295c-1.586-4.709-3.353-9.355-5.662-13.77c-1.278-2.441-2.439-4.957-4.326-7.031
		c-0.479-0.526-0.905-1.105-1.324-1.684c-2.005-2.764-4.082-5.466-6.585-7.811c-0.924-0.865-1.828-1.754-2.787-2.582
		C125.794,215.881,124.238,214.616,122.624,213.268 M245.309,263.905c-29.514,0-58.852,0-88.191,0.003
		c-0.023,0-0.052,0.029-0.065,0.053c-0.015,0.027-0.016,0.062-0.024,0.094C184.901,284.156,222.383,281.161,245.309,263.905
		 M123.909,204.78c0.083,0.026,0.165,0.053,0.248,0.077c0.106-0.153,0.221-0.301,0.316-0.463
		c14.345-24.308,28.69-48.617,43.032-72.926c0.013-0.022,0.004-0.067-0.011-0.093c-0.015-0.026-0.049-0.04-0.153-0.12
		c-15.323,7.554-26.978,18.908-34.888,34.09C126.007,177.715,123.274,190.891,123.909,204.78 M278.027,203.78
		c0.131-0.234,0.209-0.312,0.213-0.39c0.061-1.49,0.178-2.983,0.148-4.473c-0.031-1.682-0.131-3.369-0.318-5.042
		c-0.303-2.671-0.576-5.354-1.08-7.991c-1.459-7.613-4.105-14.822-7.793-21.634c-4.436-8.19-10.135-15.388-17.121-21.566
		c-4.922-4.351-10.318-7.987-16.205-10.896c-0.217-0.107-0.451-0.181-0.676-0.271c-0.039,0.044-0.078,0.088-0.117,0.133
		C249.373,155.661,263.67,179.67,278.027,203.78 M176.705,206.445c-0.061-0.062-0.123-0.123-0.185-0.184
		c-11.894,7.098-23.788,14.197-35.795,21.365c2.834,4.271,4.983,8.805,7.014,13.436c0.278-0.092,0.472-0.123,0.634-0.213
		c12.247-6.836,24.492-13.679,36.734-20.525c0.068-0.038,0.096-0.148,0.199-0.318c-6.671,0.889-13.254,1.766-20.078,2.676
		C169.146,217.137,172.925,211.791,176.705,206.445 M208.174,176.604c0.049-0.014,0.096-0.027,0.143-0.041v-40.625
		c-5.193,0.703-10.329,0.515-15.502,0.168v39.604c0.052,0.014,0.104,0.027,0.156,0.04c2.362-6.083,4.724-12.167,7.086-18.251
		c0.072,0.006,0.146,0.012,0.219,0.018C202.908,163.878,205.541,170.24,208.174,176.604 M229.445,205.65
		c-0.041,0.045-0.084,0.088-0.127,0.132c3.027,5.001,6.057,10.003,9.189,15.176c-5.766-0.548-11.311-1.075-16.859-1.603
		c-0.018,0.068-0.037,0.136-0.057,0.203c10.959,6.436,21.918,12.871,32.941,19.342c2.211-4.383,4.383-8.686,6.578-13.034
		C250.496,219.09,239.971,212.37,229.445,205.65"/>
	<path fill-rule="evenodd" clip-rule="evenodd" fill="none" d="M186.452,240.801c5.298-5.62,10.596-11.24,15.925-16.893
		c5.625,5.69,11.195,11.33,16.771,16.965c0.029,0.028,0.121-0.006,0.316-0.021c-0.023-2.175-0.32-4.344-0.438-6.518
		c-0.119-2.23-0.371-4.455-0.547-6.684c-0.174-2.191-0.328-4.385-0.498-6.679c0.24,0.086,0.445,0.127,0.617,0.226
		c3.736,2.17,7.475,4.334,11.201,6.521c7.594,4.456,15.18,8.926,22.771,13.386c1.018,0.598,1.064,0.672,0.738,1.871
		c-1.264,4.669-2.545,9.332-3.785,14.007c-0.223,0.841-0.273,1.726-0.404,2.591c-0.043,0.286-0.086,0.574-0.135,0.861
		c-0.076,0.452-0.363,0.67-0.807,0.693c-0.229,0.014-0.455,0.009-0.684,0.009c-12.885,0-25.768,0.014-38.652-0.007
		c-6.861-0.01-13.721-0.098-20.582-0.121c-10.898-0.035-21.797-0.047-32.695-0.068c-0.354-0.001-0.708,0-1.155,0
		c-1.786-5.719-3.563-11.408-5.367-17.188c12.16-6.774,24.291-13.533,36.584-20.383c0.201,5.91,0.396,11.653,0.591,17.397
		C186.297,240.777,186.375,240.789,186.452,240.801"/>
	<path fill-rule="evenodd" clip-rule="evenodd" fill="none" d="M211.365,135.714c2.969-0.751,5.896-1.479,8.818-2.234
		c3.268-0.846,6.549-1.652,9.703-2.887c0.883-0.346,1.049-0.288,1.566,0.572c1.543,2.562,3.076,5.129,4.604,7.699
		c5.562,9.358,11.109,18.725,16.682,28.078c7.217,12.117,14.457,24.222,21.678,36.336c1.299,2.177,2.559,4.374,3.857,6.603
		c-1.895,1.289-3.83,2.469-5.605,3.854c-1.812,1.416-3.553,2.952-5.168,4.588c-1.594,1.612-2.992,3.414-4.578,5.251
		c-11.377-7.249-22.805-14.55-34.367-21.937c5.904-3.762,11.723-7.381,17.463-11.188c-3.855-0.512-7.693-0.593-11.518-0.877
		c-3.842-0.288-7.695-0.435-11.734-0.651c2.771-6.449,5.484-12.754,8.283-19.261c-0.4,0.127-0.654,0.187-0.893,0.286
		c-5.91,2.447-11.82,4.9-17.73,7.348c-0.32,0.133-0.648,0.242-1.061,0.396V135.714z"/>
	<path fill-rule="evenodd" clip-rule="evenodd" fill="none" d="M138.866,225.311c-0.195-0.277-0.391-0.617-0.645-0.907
		c-1.731-1.978-3.436-3.981-5.224-5.907c-1.903-2.053-4.105-3.783-6.266-5.553c-0.876-0.717-1.723-1.468-2.629-2.242
		c15.676-26.545,31.317-53.029,47.027-79.628c6.118,1.976,12.338,3.518,18.663,4.694v41.717c-6.675-2.72-13.271-5.407-20.1-8.19
		c0.953,2.504,1.996,4.739,2.946,7.01c0.977,2.336,1.994,4.656,2.993,6.982c0.984,2.297,1.968,4.594,3.01,7.026
		c-3.671,0.638-7.26,1.291-10.859,1.879c-3.595,0.587-7.183,1.211-10.795,1.952c2.678,1.906,5.469,3.525,8.217,5.213
		c2.767,1.7,5.539,3.391,8.313,5.088C173.038,205.008,141.033,224.308,138.866,225.311"/>
	<path fill-rule="evenodd" clip-rule="evenodd" fill="none" d="M125.054,263.521c0.312-0.015,0.624-0.041,0.936-0.041
		c5.792-0.002,11.583-0.021,17.373,0.008c2.435,0.01,4.869,0.129,7.303,0.184c0.794,0.018,1.445,0.373,2.038,0.833
		c4.279,3.325,8.928,6.045,13.77,8.446c5.263,2.609,10.806,4.428,16.505,5.803c3.447,0.833,6.958,1.212,10.474,1.572
		c2.775,0.285,5.549,0.643,8.343,0.52c5.378-0.238,10.739-0.652,16.022-1.789c5.029-1.083,9.936-2.538,14.646-4.624
		c3.689-1.634,7.23-3.554,10.699-5.603c1.758-1.039,3.406-2.26,5.104-3.402c0.162-0.109,0.32-0.225,0.469-0.35
		c1.043-0.868,2.205-1.184,3.594-1.174c7.84,0.06,15.68,0.028,23.521,0.028h1.283c-5.213,6.444-11.059,11.87-17.551,16.612
		c-13.621,9.949-28.768,16.095-45.514,18.283c-18.658,2.439-36.572-0.209-53.693-7.961c-13.892-6.289-25.732-15.314-35.411-27.117
		C124.996,263.674,125.025,263.598,125.054,263.521"/>
	<path fill-rule="evenodd" clip-rule="evenodd" fill="none" d="M107.527,232.936c-0.15-0.299-0.259-0.455-0.311-0.629
		c-1.851-6.098-3.324-12.281-4.123-18.607c-0.344-2.73-0.54-5.48-0.799-8.223c-0.332-3.504-0.279-7.018-0.102-10.52
		c0.269-5.316,0.988-10.582,2.161-15.785c1.891-8.389,4.922-16.351,8.947-23.934c3.946-7.435,8.693-14.332,14.248-20.658
		c6.085-6.931,13.038-12.86,20.864-17.747c6.197-3.87,12.77-6.958,19.67-9.362c5.068-1.765,10.239-3.135,15.498-4.184
		c0.154-0.031,0.315-0.027,0.604-0.05c-0.745,1.291-1.425,2.496-2.129,3.687c-2.959,5.007-5.928,10.009-8.89,15.015
		c-0.728,1.229-1.453,2.462-2.169,3.699c-0.494,0.853-1.252,1.337-2.123,1.773c-5.375,2.693-10.783,5.347-15.587,9.016
		c-6.331,4.837-12.062,10.291-16.682,16.823c-2.649,3.745-4.961,7.702-7.118,11.751c-2.641,4.957-4.694,10.141-5.93,15.62
		c-0.606,2.684-1.081,5.407-1.448,8.135c-0.429,3.178-0.743,6.375-0.978,9.573c-0.18,2.46-0.161,4.931,0.113,7.396
		c0.124,1.117,0.115,2.26,0.036,3.382c-0.039,0.555-0.299,1.133-0.588,1.626c-3.018,5.16-6.061,10.307-9.1,15.457
		c-1.156,1.958-2.316,3.915-3.479,5.869C107.952,232.326,107.766,232.578,107.527,232.936"/>
	<path fill-rule="evenodd" clip-rule="evenodd" fill="none" d="M218.209,103.134c2.059,0.465,3.896,0.844,5.717,1.298
		c6.822,1.7,13.457,3.957,19.824,6.95c8.104,3.81,15.57,8.605,22.309,14.527c7.703,6.77,14.133,14.593,19.471,23.335
		c3.959,6.484,7.246,13.287,9.689,20.484c1.83,5.391,3.172,10.902,3.957,16.547c0.375,2.699,0.723,5.398,0.773,8.127
		c0.055,3.019,0.221,6.043,0.094,9.055c-0.129,3.102-0.516,6.195-0.857,9.286c-0.494,4.46-1.449,8.835-2.58,13.171
		c-0.457,1.758-0.984,3.499-1.486,5.245c-0.061,0.206-0.16,0.401-0.299,0.743c-0.609-1.01-1.145-1.887-1.672-2.77
		c-3.84-6.412-7.668-12.83-11.527-19.23c-0.611-1.014-0.834-1.994-0.717-3.213c0.324-3.361,0.449-6.744,0.229-10.123
		c-0.428-6.559-1.477-13.006-3.404-19.309c-2.297-7.513-5.635-14.525-9.922-21.094c-1.852-2.837-4.021-5.426-6.297-7.928
		c-1.791-1.971-3.561-3.968-5.459-5.834c-4.875-4.791-10.359-8.764-16.459-11.872c-1.939-0.988-3.881-1.977-5.846-2.914
		c-1.07-0.51-1.846-1.249-2.445-2.274c-1.855-3.169-3.779-6.296-5.65-9.456c-2.383-4.026-4.74-8.068-7.107-12.103
		C218.463,103.646,218.398,103.501,218.209,103.134"/>
	<path fill-rule="evenodd" clip-rule="evenodd" fill="none" d="M223.32,201.496c3.248,5.359,6.445,10.629,9.756,16.088
		c-3.191-0.197-6.184-0.566-9.184-0.821c-2.986-0.256-5.971-0.573-9.078-0.877c0.447,6.05,0.885,11.966,1.322,17.882
		c-0.061,0.025-0.121,0.049-0.182,0.072c-0.127-0.115-0.268-0.223-0.381-0.352c-0.688-0.778-1.334-1.596-2.059-2.338
		c-2.545-2.605-5.117-5.185-7.674-7.779c-0.75-0.766-1.479-1.551-2.225-2.322c-0.182-0.186-0.371-0.365-0.578-0.52
		c-0.627-0.461-0.887-0.467-1.438,0.094c-1.937,1.97-3.865,3.949-5.774,5.945c-1.526,1.598-3.022,3.223-4.525,4.84
		c-0.553,0.595-1.084,1.209-1.633,1.806c-0.237,0.257-0.494,0.496-0.921,0.922c-0.099-3.077-0.193-5.914-0.279-8.75
		c-0.087-2.817-0.165-5.635-0.251-8.601c-5.625,0.703-11.117,1.49-16.804,2.211c0.554-0.805,1.002-1.471,1.467-2.125
		c2.469-3.469,4.943-6.932,7.414-10.398c0.542-0.76,0.517-0.941-0.316-1.455c-2.71-1.671-5.431-3.324-8.147-4.988
		c-2.161-1.323-4.321-2.649-6.481-3.976c-0.162-0.101-0.316-0.213-0.683-0.46c6.075-1.089,11.963-2.029,17.986-3.083
		c-0.719-2.058-1.657-3.963-2.466-5.918c-0.819-1.981-1.687-3.94-2.531-5.911c-0.838-1.953-1.673-3.91-2.606-6.093
		c6.286,2.567,12.34,5.039,18.514,7.56c2.216-5.701,4.409-11.34,6.678-17.177c2.453,5.918,4.824,11.64,7.242,17.474
		c6.004-2.488,11.953-4.953,17.902-7.42c0.055,0.045,0.107,0.09,0.158,0.135c-2.307,5.373-4.613,10.746-6.99,16.285
		c6.264,0.375,12.383,0.742,18.5,1.108c0.023,0.077,0.045,0.152,0.068,0.228C232.537,195.677,227.953,198.572,223.32,201.496"/>
	<path fill-rule="evenodd" clip-rule="evenodd" fill="none" d="M308.818,261.135h-57.029c0.205-3.064,1.086-5.92,1.875-8.795
		c1.213-4.414,2.408-8.834,4.059-13.113c2.383-6.176,5.643-11.834,9.975-16.858c3.08-3.572,6.564-6.662,10.66-9.028
		c0.367-0.212,0.744-0.402,1.119-0.594c0.109-0.057,0.236-0.085,0.432-0.154C289.521,228.734,299.127,244.862,308.818,261.135"/>
	<path fill-rule="evenodd" clip-rule="evenodd" fill="none" d="M229.297,127.578c-18.803,7.585-37.568,7.99-56.588,0.816
		c9.484-16.052,18.909-32.001,28.426-48.105C210.562,96.119,219.893,111.789,229.297,127.578"/>
	<path fill-rule="evenodd" clip-rule="evenodd" fill="none" d="M122.624,213.268c1.615,1.348,3.171,2.613,4.689,3.922
		c0.959,0.828,1.863,1.716,2.787,2.582c2.503,2.344,4.58,5.047,6.585,7.811c0.419,0.578,0.845,1.157,1.324,1.684
		c1.887,2.074,3.048,4.59,4.326,7.031c2.309,4.414,4.076,9.059,5.662,13.77c1.035,3.074,1.937,6.193,2.887,9.296
		c0.12,0.392,0.166,0.808,0.245,1.204c-0.795,0.222-54.284,0.31-56.466,0.105c0.171-0.342,0.307-0.652,0.477-0.941
		c2.144-3.637,4.294-7.272,6.442-10.907c4.477-7.579,8.954-15.157,13.431-22.735c2.329-3.943,4.656-7.888,6.987-11.83
		C122.175,213.958,122.37,213.669,122.624,213.268"/>
	<path fill-rule="evenodd" clip-rule="evenodd" fill="none" d="M245.309,263.905c-22.926,17.255-60.408,20.251-88.28,0.147
		c0.007-0.03,0.008-0.065,0.023-0.092c0.014-0.023,0.043-0.053,0.065-0.053C186.456,263.905,215.795,263.905,245.309,263.905"/>
	<path fill-rule="evenodd" clip-rule="evenodd" fill="none" d="M123.91,204.78c-0.635-13.89,2.098-27.067,8.543-39.436
		c7.911-15.181,19.566-26.535,34.889-34.089c0.103,0.079,0.138,0.094,0.153,0.12c0.014,0.025,0.024,0.071,0.011,0.093
		c-14.343,24.31-28.687,48.618-43.033,72.926c-0.095,0.16-0.21,0.311-0.316,0.464C124.075,204.832,123.992,204.805,123.91,204.78"/>
	<path fill-rule="evenodd" clip-rule="evenodd" fill="none" d="M278.025,203.78c-14.355-24.11-28.652-48.12-42.949-72.13
		c0.039-0.044,0.078-0.088,0.117-0.132c0.227,0.09,0.459,0.164,0.678,0.271c5.887,2.909,11.281,6.544,16.205,10.896
		c6.986,6.177,12.686,13.376,17.121,21.566c3.688,6.811,6.334,14.02,7.791,21.633c0.506,2.636,0.781,5.32,1.082,7.992
		c0.188,1.67,0.287,3.359,0.318,5.041c0.029,1.489-0.088,2.981-0.15,4.473C278.236,203.469,278.158,203.545,278.025,203.78"/>
	<path fill-rule="evenodd" clip-rule="evenodd" fill="none" d="M176.705,206.445c-3.779,5.346-7.559,10.692-11.478,16.235
		c6.825-0.909,13.407-1.786,20.079-2.675c-0.104,0.17-0.131,0.281-0.199,0.318c-12.242,6.846-24.488,13.688-36.735,20.525
		c-0.161,0.09-0.355,0.121-0.633,0.212c-2.031-4.631-4.181-9.163-7.014-13.435c12.007-7.168,23.901-14.268,35.795-21.366
		C176.581,206.322,176.643,206.383,176.705,206.445"/>
	<path fill-rule="evenodd" clip-rule="evenodd" fill="none" d="M208.174,176.603c-2.633-6.363-5.266-12.725-7.898-19.087
		c-0.072-0.006-0.146-0.012-0.219-0.018c-2.362,6.084-4.724,12.168-7.087,18.252c-0.051-0.014-0.103-0.028-0.155-0.041v-39.604
		c5.173,0.347,10.308,0.535,15.501-0.167v40.624C208.27,176.576,208.223,176.589,208.174,176.603"/>
	<path fill-rule="evenodd" clip-rule="evenodd" fill="none" d="M229.445,205.65c10.525,6.72,21.051,13.439,31.666,20.216
		c-2.195,4.349-4.367,8.651-6.578,13.034c-11.023-6.471-21.982-12.906-32.941-19.342c0.02-0.067,0.039-0.135,0.057-0.203
		c5.549,0.527,11.094,1.055,16.859,1.603c-3.133-5.173-6.162-10.175-9.189-15.176C229.361,205.738,229.404,205.695,229.445,205.65"
		/>
</g>
<circle fill-rule="evenodd" clip-rule="evenodd" fill="none" cx="200" cy="200" r="123"/>
</svg>
