<?xml version="1.0" encoding="utf-8"?>
<!-- Generator: Adobe Illustrator 16.0.0, SVG Export Plug-In . SVG Version: 6.00 Build 0)  -->
<!DOCTYPE svg PUBLIC "-//W3C//DTD SVG 1.1//EN" "http://www.w3.org/Graphics/SVG/1.1/DTD/svg11.dtd">
<svg version="1.1" id="Layer_1" xmlns="http://www.w3.org/2000/svg" xmlns:xlink="http://www.w3.org/1999/xlink" x="0px" y="0px"
	 width="310px" height="310px" viewBox="-6.3 -4.005 310 310" enable-background="new -6.3 -4.005 310 310" xml:space="preserve">
<g>
	<path fill="none" d="M286.143,228.651c-0.364-0.73-0.59-1.273-0.885-1.77c-1.589-2.645-3.219-5.268-4.79-7.922
		c-4.646-7.869-9.249-15.762-13.919-23.617c-0.704-1.18-0.881-2.254-0.438-3.57c0.938-2.809,1.928-5.621,2.585-8.504
		c1.012-4.465,1.885-8.969,2.594-13.49c0.638-4.088,1.109-8.215,1.409-12.34c0.261-3.623,0.244-7.27-0.103-10.906
		c-0.357-3.771-0.646-7.547-0.963-11.322c-0.367-4.377-1.147-8.684-2.191-12.951c-2.271-9.295-5.507-18.233-9.826-26.774
		c-2.651-5.235-5.678-10.242-9.023-15.057c-3.822-5.5-8.014-10.706-12.783-15.409c-2.59-2.55-5.327-4.954-8.055-7.358
		c-3.471-3.06-7.044-5.999-10.87-8.615c-5.996-4.097-12.345-7.563-18.933-10.595c-6.846-3.151-13.937-5.585-21.318-7.144
		c-3.325-0.703-6.642-1.439-9.97-2.118c-0.971-0.198-1.69-0.586-2.016-1.581c-0.135-0.407-0.389-0.778-0.609-1.15
		c-5.29-8.823-10.583-17.643-15.875-26.463c-0.38-0.632-0.767-1.256-1.22-1.994c-0.243,0.381-0.417,0.632-0.57,0.893
		c-5.576,9.433-11.17,18.855-16.7,28.315c-0.691,1.185-1.575,1.747-2.857,2.011c-3.752,0.772-7.506,1.559-11.232,2.445
		c-12.992,3.091-24.927,8.626-36.117,15.828c-5.395,3.472-10.461,7.39-15.249,11.674c-3.867,3.459-7.555,7.086-10.912,11.047
		c-3.281,3.868-6.199,8.005-9.047,12.194c-2.891,4.254-5.718,8.551-8.036,13.16c-2.759,5.488-5.017,11.179-6.95,17.003
		c-1.873,5.636-3.434,11.349-4.319,17.228c-0.428,2.847-0.776,5.706-1.09,8.568c-0.289,2.626-0.573,5.26-0.699,7.896
		c-0.136,2.768-0.092,5.542-0.1,8.313c-0.003,1.266-0.012,2.539,0.104,3.797c0.258,2.787,0.631,5.564,0.887,8.352
		c0.432,4.654,1.254,9.227,2.569,13.717c1.257,4.285,2.437,8.594,3.677,12.883c0.256,0.887,0.246,1.674-0.243,2.496
		c-3.402,5.711-6.785,11.428-10.163,17.154c-2.615,4.428-5.215,8.863-7.815,13.301c-0.27,0.465-0.494,0.957-0.816,1.584h1.495
		h34.345c0.315,0,0.633-0.002,0.951,0.002c0.876,0.01,1.597,0.297,2.149,1.031c0.689,0.918,1.454,1.779,2.168,2.67
		c3.003,3.754,6.564,6.963,9.99,10.307c1.556,1.52,3.133,3.023,4.79,4.43c6.814,5.781,14.229,10.684,22.109,14.881
		c7.004,3.729,14.345,6.65,21.935,8.947c4.998,1.51,10.051,2.803,15.239,3.465c2.739,0.348,5.482,0.666,8.228,0.957
		c4.628,0.492,9.244,1.123,13.927,0.711c2.712-0.238,5.433-0.371,8.156-0.477c3.637-0.143,7.229-0.654,10.814-1.242
		c6.013-0.979,11.945-2.312,17.738-4.217c7.04-2.316,13.837-5.201,20.368-8.713c6.357-3.422,12.4-7.33,18.022-11.852
		c2.68-2.152,5.25-4.447,7.748-6.809c2.788-2.635,5.471-5.385,8.133-8.148c1.231-1.279,2.301-2.713,3.436-4.078
		c0.715-0.859,1.503-1.387,2.734-1.334c3.082,0.137,6.167,0.15,9.252,0.182c4.118,0.047,8.233,0.07,12.355,0.082
		c5.07,0.014,10.141,0.004,15.211,0.004h1.586V228.651L286.143,228.651z"/>
	<path fill="none" d="M286.143,228.651h-1.586c-5.07,0-10.142,0.014-15.212-0.002c-4.121-0.012-8.238-0.039-12.354-0.082
		c-3.088-0.027-6.172-0.045-9.252-0.182c-1.231-0.055-2.024,0.471-2.734,1.332c-1.136,1.371-2.206,2.803-3.436,4.082
		c-2.661,2.764-5.345,5.512-8.133,8.146c-2.498,2.359-5.068,4.652-7.748,6.807c-5.623,4.525-11.665,8.432-18.022,11.854
		c-6.531,3.512-13.329,6.396-20.368,8.713c-5.797,1.906-11.726,3.238-17.739,4.219c-3.587,0.584-7.177,1.096-10.813,1.24
		c-2.723,0.104-5.444,0.238-8.156,0.475c-4.683,0.416-9.299-0.217-13.927-0.709c-2.746-0.291-5.49-0.605-8.228-0.957
		c-5.188-0.664-10.242-1.955-15.239-3.465c-7.59-2.297-14.931-5.219-21.935-8.949c-7.88-4.193-15.296-9.098-22.109-14.879
		c-1.658-1.406-3.234-2.91-4.791-4.43c-3.425-3.342-6.989-6.551-9.989-10.305c-0.716-0.893-1.48-1.754-2.168-2.672
		c-0.552-0.734-1.274-1.021-2.149-1.031c-0.318-0.004-0.636-0.002-0.951-0.002H14.755H13.26c0.324-0.631,0.548-1.123,0.817-1.584
		c2.601-4.438,5.2-8.873,7.814-13.301c3.378-5.725,6.762-11.445,10.164-17.154c0.489-0.822,0.5-1.609,0.243-2.496
		c-1.243-4.289-2.42-8.596-3.677-12.883c-1.316-4.488-2.139-9.062-2.569-13.717c-0.257-2.787-0.63-5.562-0.886-8.352
		c-0.117-1.258-0.109-2.531-0.105-3.797c0.007-2.771-0.036-5.546,0.099-8.313c0.126-2.637,0.411-5.271,0.7-7.896
		c0.314-2.862,0.663-5.721,1.09-8.568c0.885-5.879,2.446-11.592,4.319-17.228c1.935-5.825,4.192-11.516,6.949-17.004
		c2.317-4.608,5.145-8.905,8.037-13.16c2.848-4.188,5.766-8.326,9.046-12.194c3.357-3.96,7.046-7.588,10.913-11.048
		c4.787-4.283,9.854-8.2,15.249-11.673c11.189-7.202,23.124-12.737,36.116-15.828c3.727-0.886,7.48-1.672,11.232-2.444
		c1.284-0.265,2.166-0.826,2.858-2.012c5.527-9.461,11.122-18.882,16.699-28.316c0.152-0.261,0.325-0.512,0.569-0.892
		c0.452,0.738,0.841,1.362,1.22,1.994c5.294,8.82,10.585,17.64,15.873,26.463c0.226,0.372,0.479,0.743,0.611,1.15
		c0.326,0.995,1.045,1.383,2.017,1.582c3.327,0.678,6.645,1.416,9.969,2.118c7.383,1.559,14.475,3.993,21.319,7.144
		c6.588,3.032,12.937,6.499,18.932,10.596c3.828,2.617,7.397,5.555,10.87,8.615c2.729,2.405,5.468,4.808,8.054,7.359
		c4.775,4.703,8.965,9.909,12.786,15.409c3.346,4.815,6.373,9.822,9.024,15.057c4.322,8.542,7.558,17.479,9.826,26.775
		c1.044,4.266,1.824,8.573,2.191,12.951c0.312,3.775,0.601,7.55,0.963,11.322c0.349,3.636,0.362,7.281,0.103,10.906
		c-0.3,4.125-0.768,8.252-1.408,12.34c-0.707,4.521-1.579,9.027-2.594,13.49c-0.655,2.881-1.646,5.693-2.585,8.504
		c-0.439,1.316-0.266,2.391,0.438,3.57c4.67,7.852,9.274,15.748,13.919,23.615c1.57,2.656,3.204,5.275,4.79,7.924
		C285.555,227.378,285.779,227.921,286.143,228.651 M131.074,200.253c-0.096-0.016-0.189-0.029-0.283-0.039
		c-0.237-6.994-0.475-13.988-0.72-21.182c-14.966,8.338-29.733,16.566-44.536,24.814c2.196,7.035,4.359,13.961,6.534,20.926
		c0.543,0,0.974,0,1.406,0c13.268,0.023,26.537,0.039,39.802,0.084c8.353,0.025,16.704,0.135,25.058,0.145
		c15.683,0.025,31.371,0.008,47.055,0.008c0.276,0,0.555,0.008,0.834-0.01c0.54-0.025,0.888-0.293,0.982-0.842
		c0.061-0.35,0.11-0.699,0.163-1.049c0.158-1.053,0.221-2.131,0.49-3.154c1.511-5.691,3.071-11.367,4.61-17.051
		c0.396-1.459,0.344-1.551-0.898-2.277c-9.243-5.43-18.475-10.873-27.722-16.295c-4.535-2.662-9.088-5.295-13.638-7.938
		c-0.207-0.121-0.459-0.17-0.751-0.273c0.206,2.793,0.393,5.461,0.605,8.131c0.215,2.711,0.521,5.42,0.667,8.137
		c0.144,2.645,0.505,5.285,0.534,7.932c-0.238,0.021-0.351,0.061-0.388,0.023c-6.788-6.859-13.571-13.723-20.417-20.65
		C143.973,186.567,137.524,193.411,131.074,200.253 M161.405,72.321v51.1c0.5-0.186,0.897-0.319,1.289-0.481
		c7.196-2.98,14.391-5.966,21.586-8.946c0.29-0.12,0.598-0.193,1.086-0.348c-3.407,7.921-6.706,15.598-10.083,23.448
		c4.916,0.266,9.609,0.444,14.285,0.793c4.652,0.347,9.324,0.444,14.02,1.068c-6.989,4.635-14.073,9.041-21.258,13.621
		c14.079,8.992,27.988,17.881,41.838,26.705c1.93-2.236,3.632-4.432,5.573-6.393c1.967-1.992,4.082-3.861,6.291-5.586
		c2.16-1.684,4.521-3.121,6.825-4.691c-1.581-2.711-3.116-5.389-4.693-8.037c-8.792-14.749-17.604-29.485-26.394-44.235
		c-6.783-11.387-13.535-22.79-20.309-34.182c-1.858-3.129-3.726-6.255-5.603-9.374c-0.631-1.045-0.833-1.117-1.906-0.696
		c-3.84,1.504-7.834,2.485-11.815,3.515C168.583,70.521,165.017,71.406,161.405,72.321 M73.142,181.397
		c2.64-1.225,41.602-24.717,42.185-25.404c-3.378-2.066-6.751-4.123-10.122-6.194c-3.343-2.054-6.742-4.023-10.002-6.347
		c4.399-0.902,8.765-1.66,13.142-2.376c4.381-0.716,8.751-1.511,13.221-2.287c-1.269-2.962-2.468-5.757-3.667-8.553
		c-1.216-2.833-2.454-5.657-3.644-8.501c-1.156-2.764-2.425-5.485-3.585-8.534c8.312,3.388,16.341,6.66,24.469,9.97V72.386
		c-7.7-1.432-15.273-3.309-22.722-5.715c-19.124,32.383-38.167,64.624-57.25,96.94c1.103,0.943,2.134,1.857,3.201,2.73
		c2.631,2.152,5.31,4.26,7.629,6.758c2.177,2.344,4.253,4.785,6.359,7.191C72.666,180.644,72.905,181.058,73.142,181.397
		 M56.327,227.913c-0.035,0.094-0.071,0.186-0.106,0.277c11.785,14.369,26.199,25.355,43.11,33.016
		c20.844,9.436,42.653,12.662,65.366,9.693c20.386-2.666,38.827-10.145,55.409-22.26c7.9-5.773,15.021-12.377,21.365-20.223h-1.562
		c-9.546,0-19.09,0.035-28.635-0.035c-1.691-0.014-3.102,0.371-4.371,1.428c-0.185,0.15-0.377,0.293-0.572,0.428
		c-2.068,1.389-4.074,2.877-6.213,4.143c-4.222,2.492-8.535,4.83-13.025,6.82c-5.732,2.539-11.704,4.312-17.829,5.631
		c-6.431,1.385-12.957,1.889-19.506,2.178c-3.402,0.148-6.78-0.285-10.156-0.631c-4.282-0.439-8.555-0.902-12.752-1.916
		c-6.938-1.674-13.686-3.887-20.093-7.062c-5.896-2.928-11.555-6.238-16.764-10.283c-0.72-0.561-1.514-0.996-2.479-1.016
		c-2.965-0.066-5.927-0.211-8.89-0.227c-7.05-0.031-14.1-0.012-21.15-0.008C57.086,227.862,56.707,227.897,56.327,227.913
		 M34.99,190.679c0.293-0.436,0.518-0.742,0.712-1.068c1.416-2.379,2.83-4.762,4.237-7.146c3.699-6.27,7.404-12.535,11.077-18.816
		c0.352-0.602,0.67-1.305,0.718-1.979c0.095-1.365,0.105-2.758-0.044-4.117c-0.333-3.002-0.357-6.01-0.139-9.003
		c0.286-3.895,0.67-7.786,1.189-11.654c0.448-3.322,1.027-6.636,1.765-9.904c1.504-6.67,4.003-12.98,7.22-19.016
		c2.625-4.929,5.438-9.746,8.665-14.305c5.624-7.952,12.602-14.592,20.31-20.48c5.847-4.467,12.433-7.699,18.976-10.977
		c1.06-0.532,1.984-1.12,2.585-2.159c0.871-1.506,1.752-3.006,2.639-4.503c3.607-6.093,7.221-12.183,10.824-18.279
		c0.857-1.449,1.685-2.916,2.592-4.488c-0.351,0.029-0.548,0.023-0.735,0.061c-6.403,1.276-12.697,2.944-18.868,5.094
		c-8.401,2.927-16.402,6.685-23.947,11.396c-9.529,5.949-17.992,13.167-25.4,21.605c-6.762,7.702-12.542,16.098-17.345,25.15
		c-4.9,9.231-8.59,18.924-10.892,29.137c-1.428,6.332-2.303,12.743-2.63,19.215c-0.215,4.264-0.281,8.542,0.124,12.807
		c0.316,3.338,0.554,6.688,0.973,10.012c0.972,7.701,2.765,15.229,5.018,22.65C34.675,190.122,34.807,190.313,34.99,190.679
		 M169.736,32.656c0.227,0.447,0.307,0.624,0.406,0.79c2.882,4.913,5.75,9.833,8.651,14.734c2.275,3.847,4.622,7.654,6.879,11.513
		c0.729,1.247,1.674,2.147,2.975,2.768c2.395,1.141,4.757,2.344,7.117,3.547c7.425,3.783,14.102,8.619,20.037,14.454
		c2.312,2.27,4.464,4.702,6.645,7.101c2.767,3.046,5.412,6.198,7.666,9.651c5.222,7.998,9.283,16.535,12.08,25.679
		c2.345,7.673,3.626,15.522,4.145,23.507c0.267,4.112,0.116,8.231-0.279,12.323c-0.144,1.484,0.132,2.676,0.875,3.912
		c4.696,7.791,9.36,15.605,14.035,23.412c0.641,1.074,1.29,2.143,2.033,3.371c0.167-0.418,0.29-0.654,0.363-0.904
		c0.609-2.127,1.252-4.244,1.81-6.387c1.375-5.277,2.538-10.604,3.14-16.033c0.417-3.762,0.885-7.529,1.044-11.307
		c0.154-3.665-0.048-7.348-0.113-11.024c-0.062-3.32-0.484-6.607-0.941-9.893c-0.958-6.872-2.59-13.582-4.816-20.144
		c-2.976-8.762-6.978-17.044-11.797-24.938c-6.498-10.642-14.324-20.167-23.705-28.408c-8.204-7.208-17.291-13.046-27.156-17.684
		c-7.753-3.645-15.828-6.393-24.133-8.462C174.479,33.685,172.241,33.224,169.736,32.656 M175.957,152.403
		c5.64-3.561,11.221-7.084,16.805-10.61c-0.028-0.092-0.059-0.185-0.083-0.277c-7.448-0.445-14.898-0.894-22.524-1.351
		c2.893-6.742,5.703-13.282,8.51-19.823c-0.063-0.055-0.13-0.11-0.192-0.164c-7.243,3.001-14.485,6.003-21.796,9.032
		c-2.943-7.102-5.831-14.068-8.815-21.272c-2.763,7.104-5.431,13.971-8.131,20.91c-7.517-3.069-14.886-6.078-22.538-9.203
		c1.136,2.657,2.152,5.039,3.171,7.418c1.028,2.399,2.085,4.784,3.082,7.195c0.987,2.38,2.126,4.701,3.003,7.204
		c-7.332,1.284-14.5,2.428-21.895,3.754c0.444,0.301,0.633,0.438,0.831,0.561c2.628,1.614,5.258,3.228,7.889,4.84
		c3.307,2.024,6.62,4.038,9.917,6.073c1.015,0.627,1.045,0.846,0.386,1.771c-3.009,4.219-6.02,8.438-9.027,12.658
		c-0.565,0.795-1.111,1.607-1.785,2.588c6.923-0.877,13.61-1.838,20.457-2.693c0.105,3.611,0.2,7.041,0.305,10.473
		c0.106,3.453,0.222,6.904,0.343,10.652c0.518-0.518,0.833-0.807,1.121-1.123c0.667-0.727,1.315-1.475,1.988-2.197
		c1.828-1.969,3.651-3.947,5.508-5.889c2.325-2.432,4.672-4.84,7.03-7.24c0.671-0.684,0.987-0.674,1.748-0.115
		c0.253,0.188,0.485,0.408,0.705,0.633c0.908,0.941,1.794,1.896,2.709,2.828c3.111,3.16,6.245,6.299,9.341,9.473
		c0.882,0.902,1.669,1.896,2.508,2.846c0.139,0.156,0.308,0.285,0.464,0.43c0.074-0.029,0.146-0.061,0.221-0.088
		c-0.531-7.201-1.064-14.408-1.608-21.77c3.783,0.369,7.415,0.756,11.053,1.066c3.651,0.312,7.296,0.76,11.178,1
		C183.806,165.345,179.914,158.927,175.957,152.403 M280.042,225.009c-11.797-19.812-23.49-39.445-35.192-59.098
		c-0.236,0.084-0.39,0.119-0.523,0.188c-0.461,0.234-0.92,0.467-1.363,0.723c-4.986,2.883-9.229,6.645-12.976,10.992
		c-5.276,6.117-9.244,13.004-12.146,20.521c-2.01,5.211-3.463,10.592-4.939,15.965c-0.963,3.504-2.031,6.98-2.281,10.709h69.425l0,0
		H280.042z M183.236,62.414c-11.45-19.222-22.811-38.297-34.287-57.57c-11.585,19.606-23.06,39.022-34.607,58.564
		C137.498,72.143,160.344,71.649,183.236,62.414 M53.368,166.735c-0.31,0.488-0.547,0.84-0.76,1.205
		c-2.837,4.799-5.67,9.6-8.505,14.402c-5.45,9.225-10.901,18.451-16.352,27.678c-2.614,4.424-5.232,8.85-7.843,13.277
		c-0.208,0.352-0.373,0.73-0.582,1.145c2.656,0.25,67.775,0.145,68.743-0.127c-0.096-0.484-0.151-0.988-0.299-1.467
		c-1.156-3.775-2.254-7.572-3.514-11.314c-1.931-5.732-4.081-11.389-6.893-16.764c-1.556-2.973-2.97-6.037-5.266-8.559
		c-0.584-0.641-1.103-1.346-1.614-2.049c-2.44-3.367-4.97-6.656-8.015-9.51c-1.127-1.055-2.226-2.137-3.393-3.143
		C57.228,169.915,55.335,168.374,53.368,166.735 M202.726,228.38c-35.93,0-71.647,0-107.366,0.004c-0.026,0-0.061,0.035-0.079,0.062
		c-0.018,0.031-0.019,0.074-0.027,0.111C129.186,253.034,174.815,249.386,202.726,228.38 M54.934,156.401
		c0.1,0.031,0.201,0.062,0.301,0.094c0.128-0.188,0.269-0.367,0.385-0.564c17.465-29.592,34.928-59.185,52.388-88.78
		c0.016-0.026,0.005-0.082-0.016-0.113c-0.017-0.032-0.059-0.05-0.184-0.146c-18.654,9.195-32.842,23.018-42.473,41.5
		C57.488,123.451,54.161,139.493,54.934,156.401 M242.556,155.185c0.159-0.285,0.257-0.379,0.26-0.475
		c0.075-1.814,0.221-3.631,0.185-5.445c-0.038-2.048-0.159-4.103-0.389-6.139c-0.366-3.251-0.701-6.52-1.315-9.729
		c-1.778-9.268-4.996-18.044-9.488-26.335c-5.401-9.971-12.339-18.734-20.843-26.255c-5.992-5.298-12.562-9.724-19.73-13.265
		c-0.265-0.13-0.549-0.221-0.824-0.33c-0.046,0.054-0.095,0.107-0.143,0.161C207.675,96.603,225.079,125.833,242.556,155.185
		 M119.207,158.429c-0.076-0.076-0.15-0.15-0.225-0.223c-14.481,8.641-28.959,17.283-43.579,26.01
		c3.452,5.201,6.066,10.717,8.541,16.355c0.338-0.111,0.575-0.148,0.771-0.26c14.908-8.322,29.816-16.652,44.721-24.988
		c0.082-0.045,0.114-0.18,0.242-0.387c-8.125,1.082-16.137,2.15-24.445,3.258C110.006,171.444,114.607,164.937,119.207,158.429
		 M157.519,122.098c0.059-0.017,0.115-0.032,0.173-0.049V72.592c-6.322,0.854-12.574,0.626-18.873,0.204v48.214
		c0.062,0.016,0.126,0.032,0.188,0.049c2.875-7.407,5.752-14.813,8.629-22.22c0.088,0.007,0.177,0.015,0.266,0.022
		C151.107,106.608,154.314,114.352,157.519,122.098 M183.415,157.462c-0.053,0.053-0.104,0.105-0.155,0.158
		c3.687,6.09,7.373,12.178,11.188,18.477c-7.02-0.666-13.771-1.309-20.523-1.951c-0.021,0.084-0.048,0.166-0.069,0.248
		c13.342,7.832,26.684,15.668,40.104,23.547c2.689-5.334,5.336-10.576,8.008-15.869C209.04,173.819,196.228,165.642,183.415,157.462
		"/>
	<path d="M131.074,200.253c6.45-6.842,12.897-13.684,19.387-20.566c6.847,6.928,13.628,13.795,20.418,20.654
		c0.035,0.035,0.146-0.006,0.385-0.023c-0.027-2.646-0.39-5.287-0.532-7.932c-0.144-2.719-0.452-5.426-0.667-8.137
		c-0.212-2.668-0.399-5.34-0.607-8.131c0.294,0.104,0.546,0.152,0.753,0.275c4.55,2.639,9.102,5.275,13.638,7.938
		c9.245,5.424,18.479,10.865,27.722,16.295c1.242,0.727,1.295,0.818,0.898,2.275c-1.536,5.684-3.097,11.361-4.608,17.053
		c-0.271,1.023-0.333,2.102-0.491,3.152c-0.053,0.35-0.104,0.701-0.164,1.049c-0.094,0.553-0.442,0.816-0.982,0.844
		c-0.278,0.016-0.555,0.01-0.833,0.01c-15.685,0-31.373,0.02-47.056-0.008c-8.353-0.014-16.704-0.119-25.058-0.146
		c-13.266-0.043-26.535-0.059-39.802-0.082c-0.431-0.002-0.862,0-1.406,0c-2.174-6.963-4.337-13.891-6.534-20.926
		c14.805-8.25,29.572-16.477,44.536-24.816c0.245,7.195,0.482,14.188,0.721,21.182C130.885,200.224,130.979,200.239,131.074,200.253
		"/>
	<path d="M161.405,72.32c3.612-0.914,7.178-1.8,10.73-2.72c3.979-1.03,7.973-2.011,11.815-3.515c1.076-0.421,1.278-0.35,1.906,0.697
		c1.878,3.119,3.747,6.243,5.603,9.373c6.771,11.394,13.525,22.795,20.309,34.182c8.79,14.751,17.603,29.488,26.392,44.237
		c1.579,2.648,3.112,5.324,4.695,8.037c-2.308,1.57-4.663,3.006-6.825,4.691c-2.207,1.725-4.324,3.594-6.291,5.586
		c-1.941,1.961-3.643,4.156-5.573,6.393c-13.85-8.824-27.765-17.715-41.838-26.707c7.188-4.578,14.271-8.984,21.258-13.619
		c-4.694-0.624-9.366-0.723-14.02-1.069c-4.682-0.35-9.371-0.527-14.285-0.793c3.375-7.85,6.676-15.527,10.081-23.447
		c-0.484,0.154-0.795,0.228-1.084,0.347c-7.197,2.979-14.392,5.966-21.587,8.947c-0.39,0.162-0.789,0.294-1.291,0.48v-51.1H161.405z
		"/>
	<path d="M73.142,181.396c-0.237-0.338-0.475-0.752-0.785-1.105c-2.106-2.408-4.183-4.848-6.359-7.193
		c-2.318-2.498-4.998-4.604-7.629-6.758c-1.066-0.873-2.097-1.787-3.201-2.729c19.083-32.316,38.127-64.558,57.25-96.941
		c7.448,2.407,15.021,4.284,22.722,5.715v50.787c-8.128-3.311-16.156-6.583-24.469-9.971c1.159,3.05,2.429,5.77,3.585,8.535
		c1.19,2.844,2.428,5.667,3.644,8.5c1.199,2.796,2.398,5.591,3.667,8.554c-4.469,0.775-8.839,1.571-13.221,2.287
		c-4.377,0.715-8.744,1.474-13.142,2.376c3.259,2.321,6.659,4.293,10.002,6.347c3.371,2.069,6.744,4.127,10.122,6.194
		C114.743,156.679,75.781,180.173,73.142,181.396"/>
	<path d="M56.327,227.913c0.38-0.018,0.761-0.051,1.141-0.051c7.05-0.004,14.1-0.021,21.15,0.01c2.964,0.016,5.925,0.156,8.89,0.225
		c0.965,0.021,1.76,0.455,2.479,1.014c5.209,4.047,10.869,7.357,16.765,10.285c6.405,3.176,13.154,5.389,20.092,7.061
		c4.198,1.014,8.471,1.479,12.751,1.916c3.379,0.348,6.756,0.781,10.158,0.633c6.548-0.289,13.075-0.795,19.506-2.18
		c6.125-1.318,12.097-3.09,17.829-5.629c4.49-1.986,8.803-4.324,13.025-6.82c2.142-1.266,4.147-2.754,6.214-4.143
		c0.194-0.135,0.39-0.275,0.569-0.426c1.27-1.057,2.685-1.443,4.373-1.43c9.545,0.072,19.089,0.035,28.636,0.035h1.561
		c-6.343,7.846-13.465,14.447-21.365,20.223c-16.582,12.115-35.024,19.596-55.409,22.26c-22.713,2.971-44.522-0.256-65.366-9.691
		c-16.907-7.656-31.321-18.645-43.105-33.014C56.256,228.099,56.292,228.005,56.327,227.913"/>
	<path d="M34.99,190.679c-0.183-0.365-0.313-0.555-0.379-0.768c-2.252-7.422-4.046-14.949-5.018-22.65
		c-0.421-3.324-0.657-6.674-0.973-10.012c-0.405-4.266-0.339-8.543-0.124-12.806c0.327-6.473,1.203-12.884,2.63-19.216
		c2.302-10.213,5.992-19.906,10.892-29.137c4.805-9.052,10.583-17.448,17.346-25.15c7.408-8.438,15.872-15.656,25.4-21.604
		c7.544-4.712,15.546-8.471,23.946-11.397c6.168-2.149,12.465-3.817,18.868-5.094c0.187-0.038,0.384-0.033,0.735-0.062
		c-0.907,1.573-1.734,3.04-2.591,4.489c-3.604,6.096-7.218,12.187-10.824,18.279c-0.887,1.497-1.769,2.997-2.64,4.503
		c-0.602,1.039-1.525,1.627-2.586,2.159c-6.542,3.279-13.127,6.51-18.973,10.977c-7.71,5.888-14.687,12.528-20.311,20.48
		c-3.225,4.559-6.04,9.376-8.665,14.305c-3.216,6.036-5.715,12.346-7.219,19.016c-0.738,3.268-1.318,6.582-1.766,9.904
		c-0.52,3.868-0.904,7.76-1.189,11.654c-0.219,2.994-0.194,6.001,0.139,9.003c0.15,1.359,0.14,2.752,0.044,4.117
		c-0.047,0.674-0.365,1.377-0.717,1.979c-3.673,6.283-7.379,12.549-11.078,18.816c-1.407,2.385-2.82,4.768-4.236,7.146
		C35.508,189.937,35.282,190.243,34.99,190.679"/>
	<path d="M169.737,32.656c2.505,0.567,4.742,1.028,6.958,1.58c8.304,2.071,16.379,4.817,24.132,8.462
		c9.865,4.638,18.956,10.476,27.157,17.684c9.381,8.242,17.204,17.766,23.704,28.408c4.821,7.894,8.82,16.176,11.797,24.938
		c2.229,6.562,3.861,13.272,4.816,20.144c0.458,3.285,0.881,6.572,0.94,9.893c0.065,3.676,0.268,7.358,0.113,11.025
		c-0.157,3.775-0.629,7.543-1.044,11.305c-0.603,5.43-1.766,10.756-3.141,16.035c-0.555,2.143-1.199,4.26-1.812,6.385
		c-0.071,0.252-0.194,0.488-0.361,0.904c-0.743-1.229-1.393-2.297-2.036-3.371c-4.675-7.805-9.332-15.619-14.032-23.412
		c-0.745-1.234-1.018-2.426-0.875-3.91c0.393-4.092,0.549-8.211,0.281-12.323c-0.521-7.984-1.801-15.834-4.148-23.508
		c-2.798-9.146-6.859-17.683-12.078-25.679c-2.253-3.455-4.898-6.606-7.665-9.652c-2.183-2.399-4.335-4.831-6.645-7.101
		c-5.936-5.835-12.612-10.671-20.037-14.453c-2.361-1.204-4.729-2.407-7.118-3.548c-1.303-0.621-2.246-1.521-2.974-2.768
		c-2.26-3.858-4.605-7.666-6.879-11.513c-2.901-4.901-5.771-9.821-8.651-14.734C170.043,33.281,169.965,33.104,169.737,32.656"/>
	<path d="M175.957,152.405c3.955,6.521,7.849,12.939,11.876,19.584c-3.882-0.24-7.526-0.689-11.178-1
		c-3.638-0.311-7.271-0.699-11.053-1.068c0.545,7.365,1.078,14.568,1.609,21.771c-0.072,0.025-0.144,0.057-0.221,0.086
		c-0.154-0.143-0.325-0.27-0.464-0.43c-0.839-0.947-1.625-1.941-2.508-2.846c-3.096-3.174-6.229-6.312-9.341-9.473
		c-0.915-0.93-1.801-1.887-2.709-2.826c-0.22-0.227-0.452-0.445-0.705-0.635c-0.761-0.559-1.078-0.568-1.75,0.115
		c-2.356,2.398-4.703,4.809-7.029,7.238c-1.857,1.945-3.679,3.924-5.509,5.893c-0.674,0.723-1.322,1.469-1.988,2.195
		c-0.289,0.312-0.602,0.604-1.121,1.125c-0.121-3.75-0.235-7.199-0.342-10.652c-0.104-3.43-0.2-6.861-0.304-10.471
		c-6.849,0.854-13.535,1.812-20.458,2.689c0.674-0.979,1.22-1.791,1.785-2.586c3.008-4.221,6.019-8.439,9.027-12.66
		c0.659-0.924,0.629-1.145-0.386-1.77c-3.299-2.035-6.611-4.049-9.918-6.073c-2.631-1.612-5.261-3.226-7.889-4.842
		c-0.198-0.121-0.387-0.257-0.832-0.559c7.396-1.326,14.564-2.469,21.896-3.754c-0.876-2.503-2.017-4.824-3.003-7.205
		c-0.997-2.411-2.054-4.796-3.082-7.196c-1.019-2.379-2.034-4.76-3.171-7.417c7.652,3.125,15.022,6.134,22.539,9.202
		c2.698-6.939,5.367-13.805,8.13-20.91c2.984,7.204,5.872,14.17,8.815,21.272c7.312-3.029,14.553-6.031,21.798-9.033
		c0.06,0.054,0.128,0.109,0.19,0.164c-2.808,6.541-5.616,13.082-8.51,19.825c7.625,0.458,15.074,0.903,22.523,1.35
		c0.026,0.094,0.056,0.186,0.084,0.277C187.177,145.32,181.598,148.843,175.957,152.405"/>
	<path d="M280.044,225.009h-69.427c0.248-3.73,1.321-7.207,2.282-10.709c1.477-5.373,2.93-10.758,4.938-15.965
		c2.901-7.52,6.868-14.406,12.147-20.521c3.749-4.348,7.989-8.109,12.975-10.992c0.445-0.256,0.904-0.488,1.364-0.721
		c0.134-0.07,0.287-0.105,0.522-0.188C256.552,185.563,268.245,205.196,280.044,225.009"/>
	<path d="M183.234,62.415c-22.889,9.234-45.735,9.728-68.892,0.994C125.89,43.867,137.363,24.45,148.95,4.844
		C160.427,24.116,171.787,43.193,183.234,62.415"/>
	<path d="M53.368,166.733c1.966,1.641,3.86,3.182,5.708,4.775c1.168,1.006,2.268,2.09,3.394,3.143
		c3.046,2.854,5.575,6.143,8.015,9.51c0.511,0.703,1.03,1.408,1.613,2.049c2.297,2.523,3.709,5.588,5.266,8.559
		c2.812,5.375,4.961,11.029,6.894,16.764c1.26,3.744,2.358,7.541,3.514,11.316c0.146,0.479,0.203,0.982,0.299,1.467
		c-0.968,0.268-66.086,0.377-68.743,0.127c0.208-0.414,0.373-0.793,0.582-1.145c2.61-4.428,5.227-8.854,7.843-13.279
		c5.451-9.227,10.901-18.453,16.352-27.68c2.835-4.799,5.669-9.602,8.505-14.4C52.824,167.573,53.059,167.222,53.368,166.733"/>
	<path d="M202.726,228.38c-27.911,21.006-73.541,24.654-107.472,0.182c0.009-0.037,0.01-0.08,0.027-0.111
		c0.019-0.027,0.053-0.062,0.079-0.062C131.079,228.38,166.797,228.38,202.726,228.38"/>
	<path d="M54.935,156.401c-0.773-16.908,2.553-32.951,10.401-48.01c9.631-18.481,23.819-32.304,42.473-41.5
		c0.125,0.096,0.168,0.114,0.186,0.146c0.018,0.031,0.028,0.086,0.014,0.114c-17.461,29.594-34.923,59.188-52.388,88.779
		c-0.115,0.197-0.257,0.379-0.386,0.564C55.135,156.466,55.034,156.433,54.935,156.401"/>
	<path d="M242.556,155.185c-17.479-29.351-34.882-58.582-52.285-87.811c0.048-0.054,0.097-0.107,0.143-0.161
		c0.274,0.109,0.56,0.2,0.824,0.33c7.169,3.542,13.737,7.967,19.73,13.265c8.505,7.522,15.442,16.284,20.843,26.255
		c4.489,8.292,7.71,17.067,9.488,26.335c0.614,3.209,0.949,6.478,1.315,9.729c0.227,2.036,0.348,4.091,0.389,6.139
		c0.036,1.813-0.106,3.63-0.185,5.445C242.812,154.804,242.716,154.899,242.556,155.185"/>
	<path d="M119.207,158.429c-4.601,6.508-9.201,13.016-13.973,19.766c8.308-1.107,16.321-2.174,24.445-3.256
		c-0.128,0.205-0.16,0.34-0.242,0.387c-14.905,8.336-29.813,16.664-44.721,24.986c-0.197,0.109-0.433,0.148-0.771,0.26
		c-2.475-5.637-5.089-11.156-8.541-16.355c14.619-8.725,29.098-17.369,43.58-26.01C119.057,158.278,119.133,158.353,119.207,158.429
		"/>
	<path d="M157.52,122.098c-3.206-7.746-6.414-15.491-9.618-23.236c-0.088-0.008-0.177-0.015-0.265-0.022
		c-2.879,7.407-5.754,14.813-8.629,22.22c-0.061-0.017-0.125-0.034-0.187-0.049V72.796c6.296,0.422,12.55,0.65,18.873-0.205v49.458
		C157.635,122.066,157.578,122.081,157.52,122.098"/>
	<path d="M183.415,157.462c12.811,8.18,25.625,16.359,38.549,24.609c-2.672,5.293-5.315,10.535-8.008,15.869
		c-13.421-7.879-26.762-15.715-40.104-23.547c0.021-0.082,0.048-0.164,0.069-0.248c6.752,0.643,13.505,1.285,20.523,1.951
		c-3.814-6.299-7.501-12.387-11.188-18.477C183.312,157.567,183.362,157.515,183.415,157.462"/>
</g>
<circle fill="none" cx="148.7" cy="150.995" r="123.5"/>
</svg>
